<svg width="33" height="33" viewBox="0 0 33 33" fill="none" xmlns="http://www.w3.org/2000/svg">
<rect width="33" height="33" rx="10" fill="#F4F7FE"/>
<g clip-path="url(#clip0_388_858)">
<path d="M11.4 14.2H11.6C12.37 14.2 13 14.83 13 15.6V22.6C13 23.37 12.37 24 11.6 24H11.4C10.63 24 10 23.37 10 22.6V15.6C10 14.83 10.63 14.2 11.4 14.2ZM17 10C17.77 10 18.4 10.63 18.4 11.4V22.6C18.4 23.37 17.77 24 17 24C16.23 24 15.6 23.37 15.6 22.6V11.4C15.6 10.63 16.23 10 17 10ZM22.6 18C23.37 18 24 18.63 24 19.4V22.6C24 23.37 23.37 24 22.6 24C21.83 24 21.2 23.37 21.2 22.6V19.4C21.2 18.63 21.83 18 22.6 18Z" fill="#89D2E6"/>
</g>
<defs>
<clipPath id="clip0_388_858">
<rect width="24" height="24" fill="white" transform="translate(5 5)"/>
</clipPath>
</defs>
</svg>
