<svg width="40" height="40" viewBox="0 0 40 40" fill="none" xmlns="http://www.w3.org/2000/svg">
<g clip-path="url(#clip0_386_458)">
<path d="M20.1892 3.36377C11.1018 3.36377 3.75635 10.7092 3.75635 19.7966C3.75635 28.8839 11.1018 36.2294 20.1892 36.2294C29.2765 36.2294 36.622 28.8839 36.622 19.7966C36.622 10.7092 29.2765 3.36377 20.1892 3.36377ZM27.2553 26.8627C26.6144 27.5036 25.5791 27.5036 24.9382 26.8627L20.1892 22.1136L15.4401 26.8627C14.7992 27.5036 13.7639 27.5036 13.1231 26.8627C12.4822 26.2218 12.4822 25.1865 13.1231 24.5457L17.8721 19.7966L13.1231 15.0475C12.4822 14.4066 12.4822 13.3714 13.1231 12.7305C13.7639 12.0896 14.7992 12.0896 15.4401 12.7305L20.1892 17.4796L24.9382 12.7305C25.5791 12.0896 26.6144 12.0896 27.2553 12.7305C27.8961 13.3714 27.8961 14.4066 27.2553 15.0475L22.5062 19.7966L27.2553 24.5457C27.8797 25.1701 27.8797 26.2218 27.2553 26.8627Z" fill="#EE5D50"/>
</g>
<defs>
<clipPath id="clip0_386_458">
<rect width="39.4387" height="39.4387" fill="white" transform="translate(0.469727 0.0771484)"/>
</clipPath>
</defs>
</svg>
