<svg width="236" height="236" viewBox="0 0 236 236" fill="none" xmlns="http://www.w3.org/2000/svg">
<circle cx="117.939" cy="117.6" r="117.494" transform="rotate(-90 117.939 117.6)" fill="#C5D3E8"/>
<path d="M117.939 0.105806C141.813 0.105809 165.121 7.3785 184.758 20.9555C204.395 34.5324 219.431 53.7693 227.862 76.1047C236.294 98.4401 237.721 122.814 231.955 145.981C226.188 169.148 213.501 190.008 195.582 205.785C177.664 221.561 155.365 231.505 131.654 234.292C107.944 237.078 83.9467 232.576 62.8587 221.384C41.7708 210.192 24.5926 192.842 13.6115 171.643C2.6304 150.445 -1.63243 126.404 1.3906 102.723L117.939 117.6L117.939 0.105806Z" fill="#89D2E6"/>
<path d="M117.939 0.105806C136.04 0.105808 153.897 4.28799 170.115 12.3261C186.333 20.3641 200.475 32.0407 211.437 46.4448C222.399 60.8489 229.885 77.591 233.311 95.3649C236.736 113.139 236.009 131.464 231.185 148.91C226.362 166.357 217.572 182.453 205.503 195.943C193.434 209.433 178.411 219.952 161.606 226.679C144.802 233.406 126.67 236.16 108.626 234.725C90.5824 233.29 73.1138 227.706 57.5836 218.408L117.939 117.6L117.939 0.105806Z" fill="#00ACDC"/>
</svg>
