<svg width="40" height="40" viewBox="0 0 40 40" fill="none" xmlns="http://www.w3.org/2000/svg">
<g clip-path="url(#clip0_386_432)">
<path d="M20.1892 3.55615C11.1182 3.55615 3.75635 10.9181 3.75635 19.989C3.75635 29.0599 11.1182 36.4218 20.1892 36.4218C29.2601 36.4218 36.622 29.0599 36.622 19.989C36.622 10.9181 29.2601 3.55615 20.1892 3.55615ZM15.7359 27.0386L9.83649 21.1393C9.19561 20.4984 9.19561 19.4631 9.83649 18.8222C10.4774 18.1814 11.5126 18.1814 12.1535 18.8222L16.9026 23.5549L28.2084 12.2491C28.8493 11.6082 29.8845 11.6082 30.5254 12.2491C31.1663 12.89 31.1663 13.9253 30.5254 14.5661L18.0529 27.0386C17.4284 27.6795 16.3767 27.6795 15.7359 27.0386Z" fill="#05CD99"/>
</g>
<defs>
<clipPath id="clip0_386_432">
<rect width="39.4387" height="39.4387" fill="white" transform="translate(0.469727 0.269775)"/>
</clipPath>
</defs>
</svg>
