<svg width="34" height="24" viewBox="0 0 34 24" fill="none" xmlns="http://www.w3.org/2000/svg">
<path d="M29.2613 1.62566C25.0008 -0.750123 19.7398 0.358575 16.8996 3.07752C14.0593 0.358575 8.79827 -0.763322 4.53783 1.62566C2.27851 2.89274 0.858359 5.03094 0.761531 7.28794C0.535598 12.4091 6.08708 16.5139 14.5595 22.8097L14.7209 22.9285C15.9474 23.8392 17.8356 23.8392 19.0621 22.9153L19.2396 22.7833C27.712 16.5007 33.2474 12.3959 33.0376 7.27474C32.9408 5.03095 31.5206 2.89274 29.2613 1.62566ZM17.0609 20.8431L16.8996 20.9751L16.7382 20.8431C9.05647 15.1544 3.98914 11.3928 3.98914 7.57831C3.98914 4.93855 6.40984 2.95874 9.63744 2.95874C12.1227 2.95874 14.5434 4.26542 15.3987 6.07365H18.4165C19.2557 4.26542 21.6764 2.95874 24.1617 2.95874C27.3893 2.95874 29.81 4.93855 29.81 7.57831C29.81 11.3928 24.7426 15.1544 17.0609 20.8431Z" fill="#4318FF"/>
</svg>
