<svg width="18" height="18" viewBox="0 0 18 18" fill="none" xmlns="http://www.w3.org/2000/svg">
<g clip-path="url(#clip0_296_8)">
<path d="M9 7.36359V10.849H13.8436C13.6309 11.97 12.9927 12.9191 12.0354 13.5573L14.9563 15.8236C16.6581 14.2528 17.64 11.9455 17.64 9.20458C17.64 8.56642 17.5827 7.95272 17.4763 7.36368L9 7.36359Z" fill="#4285F4"/>
<path d="M3.95596 10.713L3.29719 11.2173L0.965332 13.0336C2.44624 15.9709 5.48147 18 8.99962 18C11.4296 18 13.4668 17.1982 14.9559 15.8237L12.035 13.5573C11.2332 14.0973 10.2105 14.4246 8.99962 14.4246C6.65963 14.4246 4.67151 12.8455 3.95964 10.7182L3.95596 10.713Z" fill="#34A853"/>
<path d="M0.965384 4.96637C0.351781 6.17723 0 7.54361 0 8.99995C0 10.4563 0.351781 11.8227 0.965384 13.0335C0.965384 13.0417 3.95998 10.7099 3.95998 10.7099C3.77998 10.1699 3.67359 9.59721 3.67359 8.99986C3.67359 8.40251 3.77998 7.82981 3.95998 7.28982L0.965384 4.96637Z" fill="#FBBC05"/>
<path d="M8.99981 3.58363C10.3253 3.58363 11.5034 4.0418 12.4443 4.92545L15.0216 2.34821C13.4589 0.891874 11.4298 0 8.99981 0C5.48165 0 2.44624 2.02091 0.965332 4.96637L3.95984 7.29001C4.67161 5.16271 6.65982 3.58363 8.99981 3.58363Z" fill="#EA4335"/>
</g>
<defs>
<clipPath id="clip0_296_8">
<rect width="18" height="18" fill="white"/>
</clipPath>
</defs>
</svg>
