<svg width="21" height="20" viewBox="0 0 21 20" fill="none" xmlns="http://www.w3.org/2000/svg">
<g clip-path="url(#clip0_237_390)">
<path d="M18.687 -0.000976562H2.31305C1.31172 -0.000976562 0.5 0.810742 0.5 1.81207V18.186C0.5 19.1873 1.31172 19.999 2.31305 19.999H18.687C19.6883 19.999 20.5 19.1873 20.5 18.186V1.81207C20.5 0.810742 19.6883 -0.000976562 18.687 -0.000976562Z" fill="#DC395F"/>
<path d="M7.18379 6.29235C7.84863 6.29235 8.40559 5.77125 8.40559 5.08828C8.40559 4.40578 7.84863 3.88477 7.18379 3.88477C6.51895 3.88477 5.96215 4.40578 5.96215 5.08828C5.96215 5.77118 6.51895 6.29235 7.18379 6.29235ZM4.65051 12.7392C4.57871 13.0447 4.5427 13.3745 4.5427 13.6436C4.5427 14.7038 5.11762 15.4077 6.33941 15.4077C7.3527 15.4077 8.17418 14.806 8.76566 13.8343L8.40449 15.2838H10.4166L11.5666 10.6713C11.8541 9.50352 12.4111 8.89735 13.2556 8.89735C13.9204 8.89735 14.3336 9.31079 14.3336 9.99329C14.3336 10.191 14.3156 10.4064 14.2437 10.6401L13.6507 12.7602C13.5609 13.0656 13.5251 13.3713 13.5251 13.6585C13.5251 14.665 14.1179 15.4012 15.3576 15.4012C16.4177 15.4012 17.2621 14.7188 17.7293 13.0837L16.9388 12.7785C16.5435 13.8739 16.2021 14.072 15.9325 14.072C15.663 14.072 15.5193 13.8924 15.5193 13.5333C15.5193 13.3716 15.5554 13.1921 15.6091 12.976L16.1842 10.9106C16.3279 10.4256 16.3818 9.99548 16.3818 9.60032C16.3818 8.05516 15.4475 7.24876 14.3156 7.24876C13.2556 7.24876 12.1775 8.20493 11.6386 9.21126L12.0337 7.40501H8.96152L8.53027 8.99595H9.9677L9.08254 12.5397C8.38746 14.0849 7.11066 14.1099 6.95043 14.0741C6.68731 14.0147 6.51902 13.9148 6.51902 13.5729C6.51902 13.3756 6.55496 13.0923 6.6448 12.7506L7.99246 7.40501H4.57871L4.14746 8.99595H5.56676L4.65059 12.7392" fill="white"/>
</g>
<defs>
<clipPath id="clip0_237_390">
<rect width="20" height="20" fill="white" transform="translate(0.5 -0.000976562)"/>
</clipPath>
</defs>
</svg>
