<svg width="16" height="16" viewBox="0 0 16 16" fill="none" xmlns="http://www.w3.org/2000/svg">
<path d="M14.1296 13.0959L11.373 10.3394C12.0367 9.45586 12.395 8.38047 12.3937 7.27549C12.3937 4.45303 10.0975 2.15674 7.275 2.15674C4.45254 2.15674 2.15625 4.45303 2.15625 7.27549C2.15625 10.0979 4.45254 12.3942 7.275 12.3942C8.37998 12.3954 9.45537 12.0372 10.3389 11.3735L13.0954 14.1301C13.2349 14.2548 13.4169 14.3214 13.604 14.3162C13.7911 14.3109 13.9691 14.2343 14.1014 14.1019C14.2338 13.9696 14.3104 13.7916 14.3157 13.6045C14.3209 13.4174 14.2543 13.2354 14.1296 13.0959ZM3.61875 7.27549C3.61875 6.55235 3.83318 5.84545 4.23494 5.24418C4.63669 4.64292 5.20772 4.17429 5.87581 3.89755C6.5439 3.62082 7.27905 3.54841 7.9883 3.68949C8.69754 3.83057 9.34902 4.17879 9.86036 4.69013C10.3717 5.20146 10.7199 5.85294 10.861 6.56219C11.0021 7.27143 10.9297 8.00658 10.6529 8.67467C10.3762 9.34276 9.90757 9.91379 9.3063 10.3155C8.70503 10.7173 7.99814 10.9317 7.275 10.9317C6.30566 10.9306 5.37635 10.545 4.69092 9.85956C4.0055 9.17413 3.61991 8.24483 3.61875 7.27549Z" fill="#2D3748"/>
</svg>
