<svg width="56" height="56" viewBox="0 0 56 56" fill="none" xmlns="http://www.w3.org/2000/svg">
<g filter="url(#filter0_d_237_700)">
<rect x="5.5" y="2" width="45" height="45" rx="12" fill="#89D2E6"/>
</g>
<path d="M29.4062 23.1055H35.5586C35.6021 23.1055 35.6438 23.1228 35.6746 23.1535C35.7054 23.1843 35.7227 23.226 35.7227 23.2695V31.5312C35.7227 32.2741 35.4276 32.9864 34.9023 33.5117C34.3771 34.0369 33.6647 34.332 32.9219 34.332H23.0781C22.3353 34.332 21.6229 34.0369 21.0977 33.5117C20.5724 32.9864 20.2773 32.2741 20.2773 31.5312V17.4687C20.2773 16.7259 20.5724 16.0135 21.0977 15.4883C21.6229 14.9631 22.3353 14.668 23.0781 14.668H27.1211C27.1646 14.668 27.2063 14.6853 27.2371 14.716C27.2679 14.7468 27.2852 14.7885 27.2852 14.832V20.9844C27.2852 21.5469 27.5086 22.0864 27.9064 22.4842C28.3042 22.882 28.8437 23.1055 29.4062 23.1055ZM24.4844 30.1367H31.5156C31.7052 30.1367 31.887 30.0614 32.0211 29.9273C32.1552 29.7933 32.2305 29.6115 32.2305 29.4219C32.2305 29.2323 32.1552 29.0505 32.0211 28.9164C31.887 28.7823 31.7052 28.707 31.5156 28.707H24.4844C24.2948 28.707 24.113 28.7823 23.9789 28.9164C23.8448 29.0505 23.7695 29.2323 23.7695 29.4219C23.7695 29.6115 23.8448 29.7933 23.9789 29.9273C24.113 30.0614 24.2948 30.1367 24.4844 30.1367ZM24.4844 26.6211H31.5156C31.7052 26.6211 31.887 26.5458 32.0211 26.4117C32.1552 26.2777 32.2305 26.0958 32.2305 25.9062C32.2305 25.7167 32.1552 25.5348 32.0211 25.4008C31.887 25.2667 31.7052 25.1914 31.5156 25.1914H24.4844C24.2948 25.1914 24.113 25.2667 23.9789 25.4008C23.8448 25.5348 23.7695 25.7167 23.7695 25.9062C23.7695 26.0958 23.8448 26.2777 23.9789 26.4117C24.113 26.5458 24.2948 26.6211 24.4844 26.6211Z" fill="white" stroke="#89D2E6" stroke-width="0.0234375"/>
<path d="M28.8447 15.2272L35.1644 21.547L28.8447 15.2272ZM28.8447 15.2272C28.8447 15.2272 28.8447 15.2272 28.8447 15.2272M28.8447 15.2272L28.8447 15.2272M28.8447 15.2272C28.8341 15.2166 28.8205 15.2094 28.8058 15.2065C28.7911 15.2036 28.7758 15.2051 28.7619 15.2109C28.748 15.2166 28.7362 15.2263 28.7278 15.2388C28.7194 15.2512 28.7149 15.2659 28.7148 15.2809V20.9854C28.7148 21.1688 28.7877 21.3447 28.9174 21.4743C29.047 21.604 29.2229 21.6768 29.4063 21.6768H35.1107C35.1258 21.6768 35.1404 21.6723 35.1529 21.6639C35.1654 21.6555 35.1751 21.6436 35.1808 21.6298C35.1866 21.6159 35.1881 21.6006 35.1851 21.5859C35.1822 21.5712 35.175 21.5576 35.1645 21.547L28.8447 15.2272Z" fill="white" stroke="#89D2E6" stroke-width="0.0234375"/>
<defs>
<filter id="filter0_d_237_700" x="-4.76837e-07" y="-2.38419e-07" width="56" height="56" filterUnits="userSpaceOnUse" color-interpolation-filters="sRGB">
<feFlood flood-opacity="0" result="BackgroundImageFix"/>
<feColorMatrix in="SourceAlpha" type="matrix" values="0 0 0 0 0 0 0 0 0 0 0 0 0 0 0 0 0 0 127 0" result="hardAlpha"/>
<feOffset dy="3.5"/>
<feGaussianBlur stdDeviation="2.75"/>
<feColorMatrix type="matrix" values="0 0 0 0 0 0 0 0 0 0 0 0 0 0 0 0 0 0 0.02 0"/>
<feBlend mode="normal" in2="BackgroundImageFix" result="effect1_dropShadow_237_700"/>
<feBlend mode="normal" in="SourceGraphic" in2="effect1_dropShadow_237_700" result="shape"/>
</filter>
</defs>
</svg>
