<svg width="77" height="67" viewBox="0 0 77 67" fill="none" xmlns="http://www.w3.org/2000/svg">
<g filter="url(#filter0_d_361_731)">
<rect x="9.37378" y="3.85376" width="58.1287" height="48.4801" rx="19.2736" fill="#89D2E6"/>
</g>
<path d="M33.8964 37.1841C34.8996 37.1841 35.7129 36.5058 35.7129 35.6691C35.7129 34.8323 34.8996 34.1541 33.8964 34.1541C32.8931 34.1541 32.0798 34.8323 32.0798 35.6691C32.0798 36.5058 32.8931 37.1841 33.8964 37.1841Z" fill="white"/>
<path d="M46.6122 37.1841C47.6154 37.1841 48.4287 36.5058 48.4287 35.6691C48.4287 34.8323 47.6154 34.1541 46.6122 34.1541C45.6089 34.1541 44.7957 34.8323 44.7957 35.6691C44.7957 36.5058 45.6089 37.1841 46.6122 37.1841Z" fill="white"/>
<path d="M49.8365 21.6926C49.7089 21.5624 49.5481 21.4576 49.3659 21.3857C49.1836 21.3138 48.9845 21.2766 48.7829 21.2769H31.5061L31.1581 19.6303C31.121 19.4549 31.011 19.296 30.8474 19.1815C30.6838 19.0671 30.477 19.0044 30.2635 19.0044H26.6304C26.3895 19.0044 26.1585 19.0842 25.9882 19.2263C25.8179 19.3683 25.7222 19.561 25.7222 19.7619C25.7222 19.9628 25.8179 20.1555 25.9882 20.2975C26.1585 20.4396 26.3895 20.5194 26.6304 20.5194H29.5017L32.0936 32.771C32.1307 32.9464 32.2407 33.1053 32.4043 33.2198C32.568 33.3342 32.7747 33.3969 32.9882 33.3969H47.5204C47.7613 33.3969 47.9923 33.3171 48.1626 33.175C48.333 33.033 48.4287 32.8403 48.4287 32.6394C48.4287 32.4385 48.333 32.2458 48.1626 32.1038C47.9923 31.9617 47.7613 31.8819 47.5204 31.8819H33.75L33.4299 30.3669H47.148C47.463 30.3666 47.7682 30.2755 48.0119 30.1091C48.2556 29.9426 48.4229 29.7111 48.4854 29.4536L50.1203 22.6361C50.1597 22.4711 50.1547 22.3009 50.1056 22.1377C50.0565 21.9746 49.9646 21.8225 49.8365 21.6926Z" fill="white"/>
<defs>
<filter id="filter0_d_361_731" x="0.540061" y="0.641499" width="75.7961" height="66.1475" filterUnits="userSpaceOnUse" color-interpolation-filters="sRGB">
<feFlood flood-opacity="0" result="BackgroundImageFix"/>
<feColorMatrix in="SourceAlpha" type="matrix" values="0 0 0 0 0 0 0 0 0 0 0 0 0 0 0 0 0 0 127 0" result="hardAlpha"/>
<feOffset dy="5.62146"/>
<feGaussianBlur stdDeviation="4.41686"/>
<feColorMatrix type="matrix" values="0 0 0 0 0 0 0 0 0 0 0 0 0 0 0 0 0 0 0.02 0"/>
<feBlend mode="normal" in2="BackgroundImageFix" result="effect1_dropShadow_361_731"/>
<feBlend mode="normal" in="SourceGraphic" in2="effect1_dropShadow_361_731" result="shape"/>
</filter>
</defs>
</svg>
