<svg width="16" height="16" viewBox="0 0 16 16" fill="none" xmlns="http://www.w3.org/2000/svg">
<path d="M13.7528 10.6654C13.7009 10.6029 13.6499 10.5404 13.5999 10.4801C12.9124 9.64857 12.4965 9.1467 12.4965 6.79263C12.4965 5.57389 12.2049 4.57389 11.6303 3.82389C11.2065 3.26982 10.6337 2.84951 9.87869 2.53889C9.86897 2.53348 9.8603 2.52639 9.85307 2.51795C9.5815 1.60857 8.83838 0.999512 8.00025 0.999512C7.16213 0.999512 6.41932 1.60857 6.14775 2.51701C6.14051 2.52514 6.13195 2.53201 6.12244 2.53732C4.36057 3.26264 3.50432 4.6542 3.50432 6.7917C3.50432 9.1467 3.08901 9.64857 2.40088 10.4792C2.35088 10.5395 2.29994 10.6008 2.24807 10.6645C2.11407 10.8261 2.02917 11.0227 2.00342 11.2311C1.97766 11.4394 2.01214 11.6508 2.10276 11.8401C2.29557 12.2464 2.70651 12.4986 3.17557 12.4986H12.8284C13.2953 12.4986 13.7034 12.2467 13.8968 11.8423C13.9878 11.6529 14.0226 11.4414 13.9971 11.2328C13.9716 11.0242 13.8868 10.8273 13.7528 10.6654Z" fill="#4FD1C5"/>
<path d="M8.00011 15C8.45168 14.9996 8.89474 14.8771 9.28228 14.6453C9.66983 14.4135 9.98741 14.0811 10.2014 13.6834C10.2114 13.6644 10.2164 13.643 10.2158 13.6215C10.2152 13.5999 10.209 13.5789 10.1979 13.5604C10.1868 13.542 10.171 13.5267 10.1523 13.5161C10.1335 13.5055 10.1123 13.5 10.0907 13.5H5.91011C5.88852 13.4999 5.86728 13.5054 5.84846 13.516C5.82964 13.5266 5.81388 13.5418 5.80271 13.5603C5.79154 13.5788 5.78534 13.5998 5.78472 13.6214C5.7841 13.643 5.78908 13.6644 5.79917 13.6834C6.01309 14.0811 6.33062 14.4134 6.71811 14.6452C7.10559 14.877 7.54859 14.9996 8.00011 15Z" fill="#4FD1C5"/>
</svg>
