<svg width="56" height="56" viewBox="0 0 56 56" fill="none" xmlns="http://www.w3.org/2000/svg">
<g filter="url(#filter0_d_237_691)">
<rect x="5.5" y="2" width="45" height="45" rx="12" fill="#89D2E6"/>
</g>
<path d="M24.4844 32.9375C25.261 32.9375 25.8906 32.3079 25.8906 31.5312C25.8906 30.7546 25.261 30.125 24.4844 30.125C23.7077 30.125 23.0781 30.7546 23.0781 31.5312C23.0781 32.3079 23.7077 32.9375 24.4844 32.9375Z" fill="white"/>
<path d="M34.3281 32.9375C35.1048 32.9375 35.7344 32.3079 35.7344 31.5312C35.7344 30.7546 35.1048 30.125 34.3281 30.125C33.5515 30.125 32.9219 30.7546 32.9219 31.5312C32.9219 32.3079 33.5515 32.9375 34.3281 32.9375Z" fill="white"/>
<path d="M36.8242 18.5577C36.7254 18.4369 36.601 18.3396 36.4599 18.2728C36.3188 18.2061 36.1647 18.1716 36.0086 18.1719H22.6338L22.3645 16.6435C22.3357 16.4807 22.2506 16.3332 22.1239 16.2269C21.9972 16.1207 21.8372 16.0625 21.6719 16.0625H18.8594C18.6729 16.0625 18.4941 16.1366 18.3622 16.2684C18.2303 16.4003 18.1562 16.5791 18.1562 16.7656C18.1562 16.9521 18.2303 17.1309 18.3622 17.2628C18.4941 17.3947 18.6729 17.4687 18.8594 17.4687H21.0821L23.0887 28.8409C23.1174 29.0037 23.2026 29.1512 23.3292 29.2574C23.4559 29.3637 23.6159 29.4219 23.7812 29.4219H35.0312C35.2177 29.4219 35.3966 29.3478 35.5284 29.2159C35.6603 29.0841 35.7344 28.9052 35.7344 28.7187C35.7344 28.5323 35.6603 28.3534 35.5284 28.2216C35.3966 28.0897 35.2177 28.0156 35.0312 28.0156H24.371L24.1231 26.6094H34.743C34.9868 26.6091 35.223 26.5245 35.4117 26.37C35.6004 26.2156 35.7299 26.0007 35.7783 25.7617L37.0439 19.4335C37.0744 19.2804 37.0705 19.1224 37.0325 18.9709C36.9945 18.8195 36.9234 18.6783 36.8242 18.5577Z" fill="white"/>
<defs>
<filter id="filter0_d_237_691" x="-4.76837e-07" y="-2.38419e-07" width="56" height="56" filterUnits="userSpaceOnUse" color-interpolation-filters="sRGB">
<feFlood flood-opacity="0" result="BackgroundImageFix"/>
<feColorMatrix in="SourceAlpha" type="matrix" values="0 0 0 0 0 0 0 0 0 0 0 0 0 0 0 0 0 0 127 0" result="hardAlpha"/>
<feOffset dy="3.5"/>
<feGaussianBlur stdDeviation="2.75"/>
<feColorMatrix type="matrix" values="0 0 0 0 0 0 0 0 0 0 0 0 0 0 0 0 0 0 0.02 0"/>
<feBlend mode="normal" in2="BackgroundImageFix" result="effect1_dropShadow_237_691"/>
<feBlend mode="normal" in="SourceGraphic" in2="effect1_dropShadow_237_691" result="shape"/>
</filter>
</defs>
</svg>
