<svg width="20" height="20" viewBox="0 0 20 20" fill="none" xmlns="http://www.w3.org/2000/svg">
<g clip-path="url(#clip0_237_308)">
<path d="M3.54167 0.5H16.4583C18.4167 0.5 20 2.08333 20 4.04167V16.4583C20 18.4167 18.4167 20 16.4583 20H3.54167C1.58333 20 0 18.4167 0 16.4583V4.04167C0 2.08333 1.58333 0.5 3.54167 0.5Z" fill="#470137"/>
<path d="M10.5168 5.62549L8.01684 9.75049L10.6835 14.1255C10.7002 14.1588 10.7085 14.1922 10.7002 14.2255C10.6918 14.2588 10.6585 14.2338 10.6085 14.2422H8.70018C8.56684 14.2422 8.47518 14.2338 8.41684 14.1505C8.24184 13.8005 8.05851 13.4588 7.88351 13.1088C7.70851 12.7672 7.51684 12.4172 7.31684 12.0588C7.11684 11.7005 6.91684 11.3422 6.71684 10.9755H6.70018C6.52518 11.3338 6.33351 11.6922 6.14184 12.0505C5.95018 12.4088 5.75851 12.7672 5.57518 13.1172C5.38351 13.4672 5.19184 13.8255 5.00018 14.1672C4.96684 14.2505 4.90018 14.2588 4.80851 14.2588H2.97518C2.94184 14.2588 2.91684 14.2755 2.91684 14.2338C2.90851 14.2005 2.91684 14.1672 2.93351 14.1422L5.52518 9.89216L3.00018 5.61716C2.97518 5.58382 2.96684 5.55049 2.98351 5.53382C3.00018 5.50882 3.03351 5.50049 3.06684 5.50049H4.95851C5.00018 5.50049 5.04184 5.50882 5.07518 5.51716C5.10851 5.53382 5.13351 5.55882 5.15851 5.59215C5.31684 5.95049 5.50018 6.30882 5.69184 6.66716C5.89184 7.02549 6.08351 7.37549 6.29184 7.72549C6.49184 8.07549 6.67518 8.42549 6.85018 8.78382H6.86684C7.04184 8.41716 7.22518 8.05882 7.40851 7.70882C7.59184 7.35882 7.78351 7.00882 7.97518 6.65882C8.16684 6.30882 8.35018 5.95049 8.53351 5.60882C8.54184 5.57549 8.55851 5.54215 8.58351 5.52549C8.61684 5.50882 8.65018 5.50049 8.69184 5.50882H10.4502C10.4918 5.50049 10.5335 5.52549 10.5418 5.56715C10.5502 5.57549 10.5335 5.60882 10.5168 5.62549Z" fill="#FF61F6"/>
<path d="M14.367 14.4169C13.7504 14.4252 13.1337 14.3002 12.5754 14.0419C12.0504 13.8002 11.617 13.4002 11.317 12.9086C11.0087 12.4002 10.8587 11.7669 10.8587 11.0086C10.8504 10.3919 11.0087 9.78355 11.317 9.25022C11.6337 8.70855 12.092 8.25855 12.642 7.95855C13.2254 7.63355 13.9254 7.47522 14.7504 7.47522C14.792 7.47522 14.8504 7.47522 14.9254 7.48355C15.0004 7.49189 15.0837 7.49189 15.1837 7.50022V4.86689C15.1837 4.80855 15.2087 4.77522 15.267 4.77522H16.9587C17.0004 4.76689 17.0337 4.80022 17.042 4.83355C17.042 4.84189 17.042 4.85022 17.042 4.85022V12.7836C17.042 12.9336 17.0504 13.1002 17.0587 13.2836C17.0754 13.4586 17.0837 13.6252 17.092 13.7669C17.092 13.8252 17.067 13.8752 17.0087 13.9002C16.5754 14.0836 16.117 14.2169 15.6504 14.3002C15.2254 14.3752 14.8004 14.4169 14.367 14.4169ZM15.1837 12.7502V9.08355C15.1087 9.06689 15.0337 9.05022 14.9587 9.04189C14.867 9.03355 14.7754 9.02522 14.6837 9.02522C14.3587 9.02522 14.0337 9.09189 13.742 9.24189C13.4587 9.38355 13.217 9.59189 13.0337 9.85855C12.8504 10.1252 12.7587 10.4836 12.7587 10.9169C12.7504 11.2086 12.8004 11.5002 12.9004 11.7752C12.9837 12.0002 13.1087 12.2002 13.2754 12.3669C13.4337 12.5169 13.6254 12.6336 13.842 12.7002C14.067 12.7752 14.3004 12.8086 14.5337 12.8086C14.6587 12.8086 14.7754 12.8002 14.8837 12.7919C14.992 12.8002 15.0837 12.7836 15.1837 12.7502Z" fill="#FF61F6"/>
</g>
<defs>
<clipPath id="clip0_237_308">
<rect width="20" height="19.5" fill="white" transform="translate(0 0.5)"/>
</clipPath>
</defs>
</svg>
