<svg width="77" height="67" viewBox="0 0 77 67" fill="none" xmlns="http://www.w3.org/2000/svg">
<g filter="url(#filter0_d_361_758)">
<rect x="9.45752" y="3.81274" width="58.0926" height="48.375" rx="19.2736" fill="#89D2E6"/>
</g>
<path d="M29.3981 20.8177H47.552C47.7641 20.8177 47.9759 20.8289 48.1863 20.8513C48.115 20.4345 47.9431 20.0341 47.6809 19.6741C47.4187 19.3142 47.0717 19.0022 46.6609 18.7569C46.25 18.5116 45.7837 18.3382 45.2901 18.247C44.7966 18.1559 44.286 18.1489 43.7891 18.2266L28.8592 20.3491H28.8421C27.905 20.4983 27.0716 20.9399 26.5122 21.5835C27.355 21.0843 28.3639 20.8166 29.3981 20.8177Z" fill="white"/>
<path d="M47.5523 21.9537H29.3984C28.4357 21.9546 27.5128 22.2734 26.8322 22.8402C26.1515 23.4071 25.7686 24.1756 25.7676 24.9772V34.0475C25.7686 34.8491 26.1515 35.6176 26.8322 36.1844C27.5128 36.7512 28.4357 37.07 29.3984 37.0709H47.5523C48.5149 37.07 49.4378 36.7512 50.1185 36.1844C50.7992 35.6176 51.182 34.8491 51.1831 34.0475V24.9772C51.182 24.1756 50.7992 23.4071 50.1185 22.8402C49.4378 22.2734 48.5149 21.9546 47.5523 21.9537ZM44.8576 31.024C44.4985 31.024 44.1475 30.9354 43.849 30.7693C43.5504 30.6032 43.3178 30.3671 43.1804 30.0908C43.043 29.8146 43.007 29.5106 43.0771 29.2174C43.1471 28.9242 43.32 28.6548 43.5739 28.4434C43.8278 28.232 44.1512 28.088 44.5034 28.0297C44.8555 27.9713 45.2206 28.0013 45.5523 28.1157C45.884 28.2301 46.1675 28.4239 46.367 28.6725C46.5665 28.9211 46.673 29.2133 46.673 29.5123C46.673 29.9133 46.4817 30.2978 46.1412 30.5813C45.8008 30.8648 45.339 31.024 44.8576 31.024Z" fill="white"/>
<path d="M25.7959 28.1635V23.463C25.7959 22.4392 26.4767 20.723 28.8395 20.3512C30.845 20.038 32.8305 20.038 32.8305 20.038C32.8305 20.038 34.1354 20.7938 33.0575 20.7938C31.9796 20.7938 32.0079 21.9512 33.0575 21.9512C34.107 21.9512 33.0575 23.0614 33.0575 23.0614L28.831 27.0533L25.7959 28.1635Z" fill="white"/>
<defs>
<filter id="filter0_d_361_758" x="0.623801" y="0.600483" width="75.7602" height="66.0424" filterUnits="userSpaceOnUse" color-interpolation-filters="sRGB">
<feFlood flood-opacity="0" result="BackgroundImageFix"/>
<feColorMatrix in="SourceAlpha" type="matrix" values="0 0 0 0 0 0 0 0 0 0 0 0 0 0 0 0 0 0 127 0" result="hardAlpha"/>
<feOffset dy="5.62146"/>
<feGaussianBlur stdDeviation="4.41686"/>
<feColorMatrix type="matrix" values="0 0 0 0 0 0 0 0 0 0 0 0 0 0 0 0 0 0 0.02 0"/>
<feBlend mode="normal" in2="BackgroundImageFix" result="effect1_dropShadow_361_758"/>
<feBlend mode="normal" in="SourceGraphic" in2="effect1_dropShadow_361_758" result="shape"/>
</filter>
</defs>
</svg>
