<svg width="21" height="21" viewBox="0 0 21 21" fill="none" xmlns="http://www.w3.org/2000/svg">
<g clip-path="url(#clip0_237_537)">
<path d="M10.5002 7.16683C11.4168 7.16683 12.1668 6.41683 12.1668 5.50016C12.1668 4.5835 11.4168 3.8335 10.5002 3.8335C9.5835 3.8335 8.8335 4.5835 8.8335 5.50016C8.8335 6.41683 9.5835 7.16683 10.5002 7.16683ZM10.5002 8.8335C9.5835 8.8335 8.8335 9.5835 8.8335 10.5002C8.8335 11.4168 9.5835 12.1668 10.5002 12.1668C11.4168 12.1668 12.1668 11.4168 12.1668 10.5002C12.1668 9.5835 11.4168 8.8335 10.5002 8.8335ZM10.5002 13.8335C9.5835 13.8335 8.8335 14.5835 8.8335 15.5002C8.8335 16.4168 9.5835 17.1668 10.5002 17.1668C11.4168 17.1668 12.1668 16.4168 12.1668 15.5002C12.1668 14.5835 11.4168 13.8335 10.5002 13.8335Z" fill="#A0AEC0"/>
</g>
<defs>
<clipPath id="clip0_237_537">
<rect width="20" height="20" fill="white" transform="translate(0.5 0.5)"/>
</clipPath>
</defs>
</svg>
