<svg width="77" height="67" viewBox="0 0 77 67" fill="none" xmlns="http://www.w3.org/2000/svg">
<g filter="url(#filter0_d_361_749)">
<rect x="9.73291" y="3.81274" width="58.0926" height="48.375" rx="19.2736" fill="#89D2E6"/>
</g>
<path d="M38.7795 18.1736C32.2629 18.1736 26.9795 22.5732 26.9795 27.9998C26.9795 33.4263 32.2629 37.8259 38.7795 37.8259C45.2962 37.8259 50.5796 33.4263 50.5796 27.9998C50.5796 22.5732 45.2962 18.1736 38.7795 18.1736Z" fill="white" stroke="#89D2E6" stroke-width="1.2046" stroke-miterlimit="10"/>
<path d="M38.7796 18.1736C35.4852 18.1736 32.3877 22.5732 32.3877 27.9998C32.3877 33.4263 35.4852 37.8259 38.7796 37.8259C42.0739 37.8259 45.1715 33.4263 45.1715 27.9998C45.1715 22.5732 42.0739 18.1736 38.7796 18.1736Z" fill="white" stroke="#89D2E6" stroke-width="1.2046" stroke-miterlimit="10"/>
<path d="M30.9126 21.4492C33.082 22.7318 35.813 23.4967 38.7795 23.4967C41.7459 23.4967 44.477 22.7318 46.6464 21.4492" fill="white"/>
<path d="M30.9126 21.4492C33.082 22.7318 35.813 23.4967 38.7795 23.4967C41.746 23.4967 44.477 22.7318 46.6464 21.4492" stroke="#89D2E6" stroke-width="1.2046" stroke-linecap="round" stroke-linejoin="round"/>
<path d="M46.6464 34.5522C44.477 33.2696 41.746 32.5048 38.7795 32.5048C35.813 32.5048 33.082 33.2696 30.9126 34.5522" stroke="#89D2E6" stroke-width="1.2046" stroke-linecap="round" stroke-linejoin="round"/>
<path d="M38.7798 18.1736V37.8259" stroke="#89D2E6" stroke-width="1.2046" stroke-miterlimit="10"/>
<path d="M50.5796 27.9996H26.9795" stroke="#89D2E6" stroke-width="1.2046" stroke-miterlimit="10"/>
<defs>
<filter id="filter0_d_361_749" x="0.899192" y="0.600483" width="75.7602" height="66.0424" filterUnits="userSpaceOnUse" color-interpolation-filters="sRGB">
<feFlood flood-opacity="0" result="BackgroundImageFix"/>
<feColorMatrix in="SourceAlpha" type="matrix" values="0 0 0 0 0 0 0 0 0 0 0 0 0 0 0 0 0 0 127 0" result="hardAlpha"/>
<feOffset dy="5.62146"/>
<feGaussianBlur stdDeviation="4.41686"/>
<feColorMatrix type="matrix" values="0 0 0 0 0 0 0 0 0 0 0 0 0 0 0 0 0 0 0.02 0"/>
<feBlend mode="normal" in2="BackgroundImageFix" result="effect1_dropShadow_361_749"/>
<feBlend mode="normal" in="SourceGraphic" in2="effect1_dropShadow_361_749" result="shape"/>
</filter>
</defs>
</svg>
