<svg width="37" height="36" viewBox="0 0 37 36" fill="none" xmlns="http://www.w3.org/2000/svg">
<g filter="url(#filter0_d_237_613)">
<rect x="5.99902" y="2" width="25" height="25" rx="6" fill="#89D2E6"/>
</g>
<path d="M23.911 9.18441C23.9066 9.16282 23.8961 9.14294 23.8807 9.12712C23.8654 9.11129 23.8458 9.10017 23.8244 9.09505C22.3944 8.74544 19.0905 9.99129 17.3005 11.7806C16.9812 12.0973 16.6901 12.4412 16.4306 12.8084C15.8786 12.7596 15.3266 12.8004 14.8561 13.0055C13.5287 13.5897 13.1423 15.1141 13.0346 15.7699C13.0285 15.8057 13.0308 15.8426 13.0413 15.8774C13.0518 15.9123 13.0703 15.9442 13.0953 15.9707C13.1203 15.9972 13.151 16.0176 13.1852 16.0302C13.2193 16.0427 13.256 16.0472 13.2922 16.0433L15.4237 15.8082C15.4253 15.9689 15.435 16.1294 15.4528 16.2891C15.4635 16.4001 15.5128 16.5037 15.592 16.5821L16.4174 17.4056C16.4959 17.4847 16.5995 17.5339 16.7104 17.5448C16.8692 17.5625 17.0288 17.5722 17.1886 17.5738L16.9547 19.7027C16.9508 19.7389 16.9554 19.7755 16.968 19.8096C16.9806 19.8438 17.001 19.8745 17.0274 19.8995C17.0539 19.9244 17.0858 19.9429 17.1207 19.9534C17.1555 19.964 17.1923 19.9663 17.2282 19.9603C17.8827 19.8553 19.4098 19.4688 19.9906 18.1414C20.1957 17.671 20.2377 17.1217 20.1903 16.5723C20.5585 16.3128 20.9033 16.0216 21.2209 15.7022C23.0165 13.9156 24.2553 10.6854 23.911 9.18441ZM19.4294 13.5709C19.2654 13.407 19.1537 13.1982 19.1084 12.9709C19.0631 12.7435 19.0863 12.5079 19.175 12.2937C19.2637 12.0795 19.4139 11.8964 19.6066 11.7676C19.7993 11.6388 20.0259 11.5701 20.2577 11.5701C20.4895 11.5701 20.7161 11.6388 20.9089 11.7676C21.1016 11.8964 21.2518 12.0795 21.3405 12.2937C21.4291 12.5079 21.4523 12.7435 21.407 12.9709C21.3617 13.1982 21.2501 13.407 21.0861 13.5709C20.9774 13.6798 20.8482 13.7661 20.7061 13.8251C20.564 13.884 20.4116 13.9144 20.2577 13.9144C20.1039 13.9144 19.9515 13.884 19.8093 13.8251C19.6672 13.7661 19.5381 13.6798 19.4294 13.5709Z" fill="white"/>
<path d="M16.3613 18.0022C16.2275 18.1362 16.0129 18.1885 15.7546 18.2332C15.1743 18.332 14.6619 17.8306 14.7661 17.2439C14.8059 17.0215 14.9236 16.7097 14.9968 16.6365C15.0128 16.6208 15.0235 16.6004 15.0273 16.5783C15.0311 16.5562 15.0278 16.5335 15.0179 16.5134C15.0081 16.4932 14.9921 16.4767 14.9723 16.4662C14.9525 16.4556 14.9299 16.4516 14.9077 16.4546C14.5832 16.4943 14.2813 16.6414 14.05 16.8726C13.4761 17.447 13.4219 19.5786 13.4219 19.5786C13.4219 19.5786 15.5547 19.5244 16.1287 18.95C16.3605 18.7189 16.5078 18.4165 16.5469 18.0916C16.5559 17.9895 16.4316 17.9287 16.3613 18.0022Z" fill="white"/>
<defs>
<filter id="filter0_d_237_613" x="0.499023" y="-2.38419e-07" width="36" height="36" filterUnits="userSpaceOnUse" color-interpolation-filters="sRGB">
<feFlood flood-opacity="0" result="BackgroundImageFix"/>
<feColorMatrix in="SourceAlpha" type="matrix" values="0 0 0 0 0 0 0 0 0 0 0 0 0 0 0 0 0 0 127 0" result="hardAlpha"/>
<feOffset dy="3.5"/>
<feGaussianBlur stdDeviation="2.75"/>
<feColorMatrix type="matrix" values="0 0 0 0 0 0 0 0 0 0 0 0 0 0 0 0 0 0 0.02 0"/>
<feBlend mode="normal" in2="BackgroundImageFix" result="effect1_dropShadow_237_613"/>
<feBlend mode="normal" in="SourceGraphic" in2="effect1_dropShadow_237_613" result="shape"/>
</filter>
</defs>
</svg>
