<svg width="21" height="21" viewBox="0 0 21 21" fill="none" xmlns="http://www.w3.org/2000/svg">
<g clip-path="url(#clip0_237_468)">
<path fill-rule="evenodd" clip-rule="evenodd" d="M7.83241 -0.000976562C6.72684 -0.000140681 5.83209 0.917657 5.8329 2.04861C5.83209 3.17955 6.72766 4.09735 7.83323 4.09819H9.83356V2.04944C9.83437 0.918493 8.9388 0.000695201 7.83241 -0.000976562C7.83323 -0.000976562 7.83323 -0.000976562 7.83241 -0.000976562V-0.000976562ZM7.83241 5.46569H2.49984C1.39427 5.46653 0.498697 6.38432 0.499514 7.51527C0.49788 8.64622 1.39345 9.56402 2.49902 9.56569H7.83241C8.93799 9.56485 9.83356 8.64706 9.83274 7.51611C9.83356 6.38432 8.93799 5.46653 7.83241 5.46569Z" fill="#36C5F0"/>
<path fill-rule="evenodd" clip-rule="evenodd" d="M20.4998 7.51625C20.5006 6.3853 19.605 5.4675 18.4994 5.46667C17.3938 5.4675 16.4983 6.3853 16.4991 7.51625V9.56667H18.4994C19.605 9.56583 20.5006 8.64803 20.4998 7.51625ZM15.1664 7.51625V2.04958C15.1672 0.91947 14.2724 0.00167176 13.1668 0C12.0613 0.000835882 11.1657 0.918634 11.1665 2.04958V7.51625C11.1649 8.6472 12.0604 9.56499 13.166 9.56667C14.2716 9.56583 15.1672 8.64803 15.1664 7.51625Z" fill="#2EB67D"/>
<path fill-rule="evenodd" clip-rule="evenodd" d="M13.1659 20.4996C14.2714 20.4988 15.167 19.581 15.1662 18.4501C15.167 17.3191 14.2714 16.4013 13.1659 16.4005H11.1655V18.4501C11.1647 19.5802 12.0603 20.498 13.1659 20.4996ZM13.1659 15.0321H18.4992C19.6048 15.0313 20.5004 14.1135 20.4996 12.9825C20.5012 11.8516 19.6056 10.9338 18.5001 10.9321H13.1667C12.0611 10.933 11.1655 11.8508 11.1663 12.9817C11.1655 14.1135 12.0603 15.0313 13.1659 15.0321Z" fill="#ECB22E"/>
<path fill-rule="evenodd" clip-rule="evenodd" d="M0.500001 12.9827C0.499183 14.1136 1.39475 15.0314 2.50033 15.0323C3.6059 15.0314 4.50147 14.1136 4.50065 12.9827V10.9331H2.50033C1.39475 10.9339 0.499183 11.8517 0.500001 12.9827ZM5.83339 12.9827V18.4494C5.83175 19.5803 6.72733 20.4981 7.8329 20.4998C8.93847 20.499 9.83404 19.5812 9.83323 18.4502V12.9844C9.83486 11.8534 8.93929 10.9356 7.83371 10.9339C6.72732 10.9339 5.83257 11.8517 5.83339 12.9827C5.83339 12.9835 5.83339 12.9827 5.83339 12.9827Z" fill="#E01E5A"/>
</g>
<defs>
<clipPath id="clip0_237_468">
<rect width="20" height="20.5" fill="white" transform="translate(0.5 -0.000976562)"/>
</clipPath>
</defs>
</svg>
