<svg width="37" height="36" viewBox="0 0 37 36" fill="none" xmlns="http://www.w3.org/2000/svg">
<g filter="url(#filter0_d_237_603)">
<rect x="5.99902" y="2" width="25" height="25" rx="6" fill="#89D2E6"/>
</g>
<path d="M16.5469 19.1875C16.9783 19.1875 17.3281 18.8377 17.3281 18.4062C17.3281 17.9748 16.9783 17.625 16.5469 17.625C16.1154 17.625 15.7656 17.9748 15.7656 18.4062C15.7656 18.8377 16.1154 19.1875 16.5469 19.1875Z" fill="white"/>
<path d="M22.0156 19.1875C22.4471 19.1875 22.7969 18.8377 22.7969 18.4062C22.7969 17.9748 22.4471 17.625 22.0156 17.625C21.5842 17.625 21.2344 17.9748 21.2344 18.4062C21.2344 18.8377 21.5842 19.1875 22.0156 19.1875Z" fill="white"/>
<path d="M23.4023 11.1987C23.3475 11.1316 23.2783 11.0775 23.1999 11.0405C23.1216 11.0034 23.0359 10.9842 22.9492 10.9844H15.5188L15.3691 10.1353C15.3532 10.0448 15.3059 9.96287 15.2355 9.90385C15.1651 9.84482 15.0762 9.81248 14.9844 9.8125H13.4219C13.3183 9.8125 13.2189 9.85366 13.1457 9.92691C13.0724 10.0002 13.0312 10.0995 13.0312 10.2031C13.0312 10.3067 13.0724 10.4061 13.1457 10.4793C13.2189 10.5526 13.3183 10.5937 13.4219 10.5937H14.6567L15.7715 16.9116C15.7874 17.0021 15.8348 17.084 15.9051 17.143C15.9755 17.202 16.0644 17.2344 16.1562 17.2344H22.4062C22.5098 17.2344 22.6092 17.1932 22.6825 17.12C22.7557 17.0467 22.7969 16.9473 22.7969 16.8437C22.7969 16.7401 22.7557 16.6408 22.6825 16.5675C22.6092 16.4943 22.5098 16.4531 22.4062 16.4531H16.4839L16.3462 15.6719H22.2461C22.3816 15.6717 22.5128 15.6247 22.6176 15.5389C22.7224 15.4531 22.7944 15.3337 22.8213 15.2009L23.5244 11.6853C23.5414 11.6002 23.5392 11.5124 23.5181 11.4283C23.497 11.3441 23.4574 11.2657 23.4023 11.1987Z" fill="white"/>
<defs>
<filter id="filter0_d_237_603" x="0.499023" y="-2.38419e-07" width="36" height="36" filterUnits="userSpaceOnUse" color-interpolation-filters="sRGB">
<feFlood flood-opacity="0" result="BackgroundImageFix"/>
<feColorMatrix in="SourceAlpha" type="matrix" values="0 0 0 0 0 0 0 0 0 0 0 0 0 0 0 0 0 0 127 0" result="hardAlpha"/>
<feOffset dy="3.5"/>
<feGaussianBlur stdDeviation="2.75"/>
<feColorMatrix type="matrix" values="0 0 0 0 0 0 0 0 0 0 0 0 0 0 0 0 0 0 0.02 0"/>
<feBlend mode="normal" in2="BackgroundImageFix" result="effect1_dropShadow_237_603"/>
<feBlend mode="normal" in="SourceGraphic" in2="effect1_dropShadow_237_603" result="shape"/>
</filter>
</defs>
</svg>
