<svg width="77" height="67" viewBox="0 0 77 67" fill="none" xmlns="http://www.w3.org/2000/svg">
<g filter="url(#filter0_d_361_740)">
<rect x="9.20508" y="3.81274" width="58.057" height="48.375" rx="19.2736" fill="#89D2E6"/>
</g>
<path d="M40.0477 26.5083H47.9852C48.0414 26.5083 48.0947 26.5269 48.1335 26.5593C48.1723 26.5916 48.1932 26.6346 48.1932 26.6785V35.5598C48.1932 36.3555 47.8139 37.1194 47.1372 37.6832C46.4603 38.2472 45.5418 38.5644 44.5834 38.5644H31.8834C30.9251 38.5644 30.0065 38.2472 29.3297 37.6832C28.653 37.1194 28.2737 36.3555 28.2737 35.5598V20.4426C28.2737 19.647 28.653 18.883 29.3297 18.3192C30.0065 17.7553 30.9251 17.438 31.8834 17.438H37.0995C37.1557 17.438 37.209 17.4566 37.2478 17.489C37.2866 17.5213 37.3075 17.5643 37.3075 17.6082V24.2219C37.3075 24.8295 37.5972 25.4114 38.1113 25.8398C38.6254 26.2681 39.322 26.5083 40.0477 26.5083ZM33.6977 34.0669H42.7691C43.0137 34.0669 43.2488 33.986 43.4226 33.8412C43.5965 33.6963 43.6951 33.4989 43.6951 33.2922C43.6951 33.0855 43.5965 32.8882 43.4226 32.7433C43.2488 32.5985 43.0137 32.5175 42.7691 32.5175H33.6977C33.4531 32.5175 33.218 32.5985 33.0442 32.7433C32.8703 32.8882 32.7718 33.0855 32.7718 33.2922C32.7718 33.4989 32.8703 33.6963 33.0442 33.8412C33.218 33.986 33.4531 34.0669 33.6977 34.0669ZM33.6977 30.2876H42.7691C43.0137 30.2876 43.2488 30.2067 43.4226 30.0619C43.5965 29.917 43.6951 29.7196 43.6951 29.5129C43.6951 29.3063 43.5965 29.1089 43.4226 28.964C43.2488 28.8192 43.0137 28.7383 42.7691 28.7383H33.6977C33.4531 28.7383 33.218 28.8192 33.0442 28.964C32.8703 29.1089 32.7718 29.3063 32.7718 29.5129C32.7718 29.7196 32.8703 29.917 33.0442 30.0619C33.218 30.2067 33.4531 30.2876 33.6977 30.2876Z" fill="white" stroke="#89D2E6" stroke-width="0.0376437"/>
<path d="M39.322 18.0387L47.4754 24.8324L47.4754 24.8324C47.4884 24.8433 47.4967 24.8566 47.5 24.8706C47.5033 24.8845 47.5016 24.8989 47.495 24.9123C47.4883 24.9257 47.4767 24.9378 47.4611 24.9466C47.4454 24.9553 47.4268 24.9601 47.4074 24.9602H40.0478C39.8112 24.9602 39.5848 24.8819 39.4184 24.7432C39.252 24.6046 39.1594 24.4174 39.1594 24.2232V18.0908C39.1595 18.0768 39.1646 18.0627 39.1745 18.0503C39.1846 18.0379 39.1992 18.0278 39.2168 18.0217C39.2345 18.0156 39.254 18.014 39.2729 18.0171C39.2919 18.0202 39.3089 18.0278 39.3219 18.0387C39.3219 18.0387 39.3219 18.0387 39.322 18.0387Z" fill="white" stroke="#89D2E6" stroke-width="0.0376437"/>
<defs>
<filter id="filter0_d_361_740" x="0.37136" y="0.600483" width="75.7246" height="66.0424" filterUnits="userSpaceOnUse" color-interpolation-filters="sRGB">
<feFlood flood-opacity="0" result="BackgroundImageFix"/>
<feColorMatrix in="SourceAlpha" type="matrix" values="0 0 0 0 0 0 0 0 0 0 0 0 0 0 0 0 0 0 127 0" result="hardAlpha"/>
<feOffset dy="5.62146"/>
<feGaussianBlur stdDeviation="4.41686"/>
<feColorMatrix type="matrix" values="0 0 0 0 0 0 0 0 0 0 0 0 0 0 0 0 0 0 0.02 0"/>
<feBlend mode="normal" in2="BackgroundImageFix" result="effect1_dropShadow_361_740"/>
<feBlend mode="normal" in="SourceGraphic" in2="effect1_dropShadow_361_740" result="shape"/>
</filter>
</defs>
</svg>
