<svg width="25" height="25" viewBox="0 0 25 25" fill="none" xmlns="http://www.w3.org/2000/svg">
<path d="M21.5581 20.4248L17.1308 15.9974C18.1967 14.5784 18.7721 12.8512 18.7701 11.0765C18.7701 6.54324 15.082 2.8551 10.5488 2.8551C6.01553 2.8551 2.32739 6.54324 2.32739 11.0765C2.32739 15.6097 6.01553 19.2979 10.5488 19.2979C12.3235 19.2998 14.0507 18.7244 15.4697 17.6585L19.8971 22.0858C20.1212 22.2862 20.4135 22.3931 20.714 22.3847C21.0145 22.3763 21.3004 22.2532 21.5129 22.0406C21.7255 21.8281 21.8486 21.5422 21.857 21.2417C21.8654 20.9412 21.7585 20.6489 21.5581 20.4248ZM4.67636 11.0765C4.67636 9.91503 5.02077 8.77965 5.66604 7.81394C6.31131 6.84823 7.22845 6.09555 8.30149 5.65108C9.37454 5.20661 10.5553 5.09032 11.6944 5.3169C12.8336 5.54349 13.8799 6.10278 14.7012 6.92406C15.5225 7.74533 16.0818 8.79169 16.3083 9.93083C16.5349 11.07 16.4186 12.2507 15.9742 13.3238C15.5297 14.3968 14.777 15.3139 13.8113 15.9592C12.8456 16.6045 11.7102 16.9489 10.5488 16.9489C8.99188 16.947 7.4993 16.3277 6.39841 15.2268C5.29752 14.126 4.67822 12.6334 4.67636 11.0765Z" fill="#2D3748"/>
</svg>
