<svg width="37" height="36" viewBox="0 0 37 36" fill="none" xmlns="http://www.w3.org/2000/svg">
<g filter="url(#filter0_d_237_623)">
<rect x="5.99902" y="2" width="25" height="25" rx="6" fill="#89D2E6"/>
</g>
<path d="M14.5818 10.7876H22.3943C22.4855 10.7876 22.5767 10.7934 22.6672 10.805C22.6366 10.5896 22.5626 10.3826 22.4497 10.1966C22.3369 10.0106 22.1876 9.84935 22.0108 9.7226C21.8339 9.59585 21.6333 9.50622 21.4209 9.45912C21.2085 9.41201 20.9887 9.40841 20.7749 9.44853L14.3499 10.5455H14.3425C13.9392 10.6226 13.5806 10.8508 13.3398 11.1834C13.7025 10.9254 14.1367 10.7871 14.5818 10.7876Z" fill="white"/>
<path d="M22.394 11.375H14.5815C14.1673 11.3755 13.7701 11.5402 13.4772 11.8331C13.1843 12.1261 13.0195 12.5232 13.019 12.9375V17.625C13.0195 18.0393 13.1843 18.4364 13.4772 18.7294C13.7701 19.0223 14.1673 19.187 14.5815 19.1875H22.394C22.8083 19.187 23.2055 19.0223 23.4984 18.7294C23.7913 18.4364 23.9561 18.0393 23.9565 17.625V12.9375C23.9561 12.5232 23.7913 12.1261 23.4984 11.8331C23.2055 11.5402 22.8083 11.3755 22.394 11.375ZM21.2344 16.0625C21.0799 16.0625 20.9288 16.0167 20.8003 15.9308C20.6719 15.845 20.5717 15.723 20.5126 15.5802C20.4535 15.4375 20.438 15.2804 20.4681 15.1288C20.4983 14.9773 20.5727 14.8381 20.6819 14.7288C20.7912 14.6196 20.9304 14.5452 21.082 14.515C21.2335 14.4849 21.3906 14.5003 21.5333 14.5595C21.6761 14.6186 21.7981 14.7187 21.884 14.8472C21.9698 14.9757 22.0156 15.1267 22.0156 15.2812C22.0156 15.4884 21.9333 15.6872 21.7868 15.8337C21.6403 15.9802 21.4416 16.0625 21.2344 16.0625Z" fill="white"/>
<path d="M13.0312 14.584V12.1548C13.0312 11.6257 13.3242 10.7388 14.3411 10.5466C15.2041 10.3848 16.0586 10.3848 16.0586 10.3848C16.0586 10.3848 16.6201 10.7754 16.1562 10.7754C15.6924 10.7754 15.7046 11.3735 16.1562 11.3735C16.6079 11.3735 16.1562 11.9473 16.1562 11.9473L14.3374 14.0103L13.0312 14.584Z" fill="white"/>
<defs>
<filter id="filter0_d_237_623" x="0.499023" y="-2.38419e-07" width="36" height="36" filterUnits="userSpaceOnUse" color-interpolation-filters="sRGB">
<feFlood flood-opacity="0" result="BackgroundImageFix"/>
<feColorMatrix in="SourceAlpha" type="matrix" values="0 0 0 0 0 0 0 0 0 0 0 0 0 0 0 0 0 0 127 0" result="hardAlpha"/>
<feOffset dy="3.5"/>
<feGaussianBlur stdDeviation="2.75"/>
<feColorMatrix type="matrix" values="0 0 0 0 0 0 0 0 0 0 0 0 0 0 0 0 0 0 0.02 0"/>
<feBlend mode="normal" in2="BackgroundImageFix" result="effect1_dropShadow_237_623"/>
<feBlend mode="normal" in="SourceGraphic" in2="effect1_dropShadow_237_623" result="shape"/>
</filter>
</defs>
</svg>
