<svg width="16" height="17" viewBox="0 0 16 17" fill="none" xmlns="http://www.w3.org/2000/svg">
<path d="M5.5 14.5C6.05228 14.5 6.5 14.0523 6.5 13.5C6.5 12.9477 6.05228 12.5 5.5 12.5C4.94772 12.5 4.5 12.9477 4.5 13.5C4.5 14.0523 4.94772 14.5 5.5 14.5Z" fill="#4299E1"/>
<path d="M12.5 14.5C13.0523 14.5 13.5 14.0523 13.5 13.5C13.5 12.9477 13.0523 12.5 12.5 12.5C11.9477 12.5 11.5 12.9477 11.5 13.5C11.5 14.0523 11.9477 14.5 12.5 14.5Z" fill="#4299E1"/>
<path d="M14.275 4.27437C14.2048 4.18845 14.1163 4.11925 14.0159 4.07179C13.9156 4.02433 13.806 3.99981 13.695 4H4.18406L3.9925 2.91312C3.97207 2.79735 3.91151 2.69248 3.82144 2.61693C3.73137 2.54138 3.61756 2.49998 3.5 2.5H1.5C1.36739 2.5 1.24021 2.55268 1.14645 2.64645C1.05268 2.74021 1 2.86739 1 3C1 3.13261 1.05268 3.25978 1.14645 3.35355C1.24021 3.44732 1.36739 3.5 1.5 3.5H3.08062L4.5075 11.5869C4.52793 11.7026 4.58849 11.8075 4.67856 11.8831C4.76863 11.9586 4.88244 12 5 12H13C13.1326 12 13.2598 11.9473 13.3536 11.8536C13.4473 11.7598 13.5 11.6326 13.5 11.5C13.5 11.3674 13.4473 11.2402 13.3536 11.1464C13.2598 11.0527 13.1326 11 13 11H5.41937L5.24312 10H12.795C12.9684 9.99978 13.1364 9.93966 13.2706 9.82981C13.4047 9.71996 13.4968 9.56713 13.5312 9.39719L14.4312 4.89719C14.4529 4.78828 14.4502 4.67592 14.4231 4.56821C14.3961 4.46051 14.3455 4.36015 14.275 4.27437Z" fill="#4299E1"/>
</svg>
