<svg width="18" height="18" viewBox="0 0 18 18" fill="none" xmlns="http://www.w3.org/2000/svg">
<g clip-path="url(#clip0_296_133)">
<path d="M17.4375 8.71875C17.4375 13.0781 14.2383 16.6992 10.0547 17.332V11.25H12.0938L12.4805 8.71875H10.0547V7.10156C10.0547 6.39844 10.4062 5.73047 11.4961 5.73047H12.5859V3.58594C12.5859 3.58594 11.6016 3.41016 10.6172 3.41016C8.64844 3.41016 7.34766 4.64062 7.34766 6.82031V8.71875H5.13281V11.25H7.34766V17.332C3.16406 16.6992 0 13.0781 0 8.71875C0 3.90234 3.90234 0 8.71875 0C13.5352 0 17.4375 3.90234 17.4375 8.71875Z" fill="#1877F2"/>
</g>
<defs>
<clipPath id="clip0_296_133">
<rect width="18" height="18" fill="white"/>
</clipPath>
</defs>
</svg>
