<svg width="56" height="56" viewBox="0 0 56 56" fill="none" xmlns="http://www.w3.org/2000/svg">
<g filter="url(#filter0_d_237_718)">
<rect x="5.5" y="2" width="45" height="45" rx="12" fill="#89D2E6"/>
</g>
<path d="M20.9464 17.818H35.0089C35.1732 17.818 35.3373 17.8284 35.5002 17.8492C35.445 17.4615 35.3118 17.089 35.1088 16.7542C34.9057 16.4194 34.6369 16.1291 34.3186 15.901C34.0003 15.6728 33.6391 15.5115 33.2568 15.4267C32.8745 15.3419 32.4789 15.3354 32.094 15.4076L20.529 17.3821H20.5158C19.7898 17.5209 19.1443 17.9317 18.7109 18.5304C19.3638 18.066 20.1453 17.817 20.9464 17.818Z" fill="white"/>
<path d="M35.0093 18.875H20.9468C20.2011 18.8758 19.4862 19.1724 18.9589 19.6997C18.4317 20.2269 18.1351 20.9418 18.1343 21.6875V30.125C18.1351 30.8707 18.4317 31.5856 18.9589 32.1128C19.4862 32.6401 20.2011 32.9367 20.9468 32.9375H35.0093C35.7549 32.9367 36.4698 32.6401 36.9971 32.1128C37.5244 31.5856 37.821 30.8707 37.8218 30.125V21.6875C37.821 20.9418 37.5244 20.2269 36.9971 19.6997C36.4698 19.1724 35.7549 18.8758 35.0093 18.875ZM32.9219 27.3125C32.6437 27.3125 32.3719 27.23 32.1406 27.0755C31.9093 26.921 31.7291 26.7014 31.6227 26.4444C31.5162 26.1874 31.4884 25.9047 31.5426 25.6319C31.5969 25.3591 31.7308 25.1085 31.9275 24.9119C32.1242 24.7152 32.3747 24.5813 32.6475 24.527C32.9203 24.4728 33.2031 24.5006 33.46 24.607C33.717 24.7135 33.9366 24.8937 34.0911 25.125C34.2456 25.3562 34.3281 25.6281 34.3281 25.9062C34.3281 26.2792 34.18 26.6369 33.9162 26.9006C33.6525 27.1643 33.2948 27.3125 32.9219 27.3125Z" fill="white"/>
<path d="M18.1562 24.6514V20.2788C18.1562 19.3265 18.6836 17.73 20.5139 17.3841C22.0674 17.0928 23.6055 17.0928 23.6055 17.0928C23.6055 17.0928 24.6162 17.7959 23.7812 17.7959C22.9463 17.7959 22.9683 18.8726 23.7812 18.8726C24.5942 18.8726 23.7812 19.9053 23.7812 19.9053L20.5073 23.6187L18.1562 24.6514Z" fill="white"/>
<defs>
<filter id="filter0_d_237_718" x="-4.76837e-07" y="-2.38419e-07" width="56" height="56" filterUnits="userSpaceOnUse" color-interpolation-filters="sRGB">
<feFlood flood-opacity="0" result="BackgroundImageFix"/>
<feColorMatrix in="SourceAlpha" type="matrix" values="0 0 0 0 0 0 0 0 0 0 0 0 0 0 0 0 0 0 127 0" result="hardAlpha"/>
<feOffset dy="3.5"/>
<feGaussianBlur stdDeviation="2.75"/>
<feColorMatrix type="matrix" values="0 0 0 0 0 0 0 0 0 0 0 0 0 0 0 0 0 0 0.02 0"/>
<feBlend mode="normal" in2="BackgroundImageFix" result="effect1_dropShadow_237_718"/>
<feBlend mode="normal" in="SourceGraphic" in2="effect1_dropShadow_237_718" result="shape"/>
</filter>
</defs>
</svg>
