<svg width="15" height="16" viewBox="0 0 15 16" fill="none" xmlns="http://www.w3.org/2000/svg">
<path d="M12.5391 7.0625H8.4375C8.06454 7.0625 7.70685 6.91434 7.44313 6.65062C7.17941 6.38689 7.03125 6.02921 7.03125 5.65625V1.55469C7.03125 1.52361 7.0189 1.4938 6.99693 1.47182C6.97495 1.44985 6.94514 1.4375 6.91406 1.4375H4.21875C3.72147 1.4375 3.24456 1.63504 2.89292 1.98667C2.54129 2.33831 2.34375 2.81522 2.34375 3.3125V12.6875C2.34375 13.1848 2.54129 13.6617 2.89292 14.0133C3.24456 14.365 3.72147 14.5625 4.21875 14.5625H10.7812C11.2785 14.5625 11.7554 14.365 12.1071 14.0133C12.4587 13.6617 12.6562 13.1848 12.6562 12.6875V7.17969C12.6562 7.14861 12.6439 7.1188 12.6219 7.09682C12.5999 7.07484 12.5701 7.0625 12.5391 7.0625Z" fill="#89D2E6"/>
<path d="M12.2818 6.02612L8.06865 1.81294C8.06046 1.80479 8.05004 1.79925 8.03871 1.79701C8.02737 1.79477 8.01563 1.79593 8.00495 1.80034C7.99428 1.80476 7.98514 1.81223 7.9787 1.82182C7.97226 1.83141 7.9688 1.84269 7.96875 1.85425V5.65727C7.96875 5.78159 8.01814 5.90082 8.10604 5.98873C8.19395 6.07664 8.31318 6.12602 8.4375 6.12602H12.2405C12.2521 6.12598 12.2634 6.12251 12.273 6.11607C12.2825 6.10963 12.29 6.1005 12.2944 6.08982C12.2988 6.07914 12.3 6.0674 12.2978 6.05607C12.2955 6.04473 12.29 6.03431 12.2818 6.02612Z" fill="#89D2E6"/>
</svg>
