<svg width="24" height="25" viewBox="0 0 24 25" fill="none" xmlns="http://www.w3.org/2000/svg">
<g clip-path="url(#clip0_361_844)">
<path d="M4.97196 24.0362H3.48352C3.18745 24.0362 2.90351 23.9172 2.69415 23.7054C2.4848 23.4936 2.36719 23.2064 2.36719 22.9069V16.131C2.36719 15.8315 2.4848 15.5443 2.69415 15.3325C2.90351 15.1207 3.18745 15.0017 3.48352 15.0017H4.97196C5.26803 15.0017 5.55197 15.1207 5.76132 15.3325C5.97067 15.5443 6.08829 15.8315 6.08829 16.131V22.9069C6.08829 23.2064 5.97067 23.4936 5.76132 23.7054C5.55197 23.9172 5.26803 24.0362 4.97196 24.0362Z" fill="#89D2E6"/>
<path d="M15.3914 24.0346H13.903C13.6069 24.0346 13.3229 23.9157 13.1136 23.7039C12.9042 23.4921 12.7866 23.2048 12.7866 22.9053V11.6122C12.7866 11.3127 12.9042 11.0255 13.1136 10.8137C13.3229 10.6019 13.6069 10.4829 13.903 10.4829H15.3914C15.6875 10.4829 15.9714 10.6019 16.1808 10.8137C16.3901 11.0255 16.5077 11.3127 16.5077 11.6122V22.9053C16.5077 23.2048 16.3901 23.4921 16.1808 23.7039C15.9714 23.9157 15.6875 24.0346 15.3914 24.0346Z" fill="#89D2E6"/>
<path d="M20.6009 24.0355H19.1124C18.8164 24.0355 18.5324 23.9165 18.3231 23.7047C18.1137 23.4929 17.9961 23.2057 17.9961 22.9061V6.34293C17.9961 6.04342 18.1137 5.75618 18.3231 5.54439C18.5324 5.3326 18.8164 5.21362 19.1124 5.21362H20.6009C20.8969 5.21362 21.1809 5.3326 21.3902 5.54439C21.5996 5.75618 21.7172 6.04342 21.7172 6.34293V22.9061C21.7172 23.2057 21.5996 23.4929 21.3902 23.7047C21.1809 23.9165 20.8969 24.0355 20.6009 24.0355Z" fill="#89D2E6"/>
<path d="M10.1814 24.0349H8.69299C8.39692 24.0349 8.11298 23.916 7.90363 23.7042C7.69427 23.4924 7.57666 23.2051 7.57666 22.9056V2.57804C7.57666 2.27853 7.69427 1.99128 7.90363 1.7795C8.11298 1.56771 8.39692 1.44873 8.69299 1.44873H10.1814C10.4775 1.44873 10.7614 1.56771 10.9708 1.7795C11.1801 1.99128 11.2978 2.27853 11.2978 2.57804V22.9056C11.2978 23.2051 11.1801 23.4924 10.9708 23.7042C10.7614 23.916 10.4775 24.0349 10.1814 24.0349Z" fill="#89D2E6"/>
</g>
<defs>
<clipPath id="clip0_361_844">
<rect width="23.815" height="24.092" fill="white" transform="translate(0.134766 0.696289)"/>
</clipPath>
</defs>
</svg>
