<svg width="20" height="16" viewBox="0 0 20 16" fill="none" xmlns="http://www.w3.org/2000/svg">
<path d="M10.1041 5.69619C9.51182 5.69619 8.93288 5.82782 8.44046 6.07445C7.94803 6.32108 7.56423 6.67162 7.33759 7.08174C7.11095 7.49187 7.05165 7.94316 7.16719 8.37854C7.28273 8.81393 7.56792 9.21385 7.9867 9.52775C8.40547 9.84165 8.93902 10.0554 9.51988 10.142C10.1007 10.2286 10.7028 10.1842 11.25 10.0143C11.7971 9.84441 12.2648 9.55673 12.5938 9.18763C12.9228 8.81853 13.0985 8.38458 13.0985 7.94067C13.0961 7.34594 12.7798 6.77608 12.2188 6.35554C11.6578 5.93501 10.8975 5.69796 10.1041 5.69619ZM16.569 7.94067C16.5674 8.15039 16.5469 8.35979 16.5076 8.56744L18.3301 9.63693C18.4094 9.68606 18.4629 9.75474 18.4809 9.8307C18.499 9.90667 18.4804 9.98496 18.4285 10.0516L16.7045 12.2826C16.6521 12.3487 16.5703 12.3987 16.4735 12.424C16.3766 12.4493 16.271 12.4482 16.1752 12.4209L14.0323 11.7756C13.5861 12.0332 13.0978 12.2469 12.5793 12.4117L12.2589 14.1169C12.241 14.1933 12.1882 14.2626 12.1096 14.3131C12.031 14.3635 11.9315 14.392 11.8281 14.3935H8.38003C8.27846 14.3921 8.18057 14.3648 8.10232 14.3163C8.02408 14.2677 7.9701 14.2007 7.94921 14.1262L7.62881 12.4209C7.10886 12.2581 6.62021 12.044 6.17578 11.7843L4.03291 12.4296C3.93712 12.4569 3.83154 12.4581 3.73474 12.4328C3.63794 12.4076 3.55611 12.3576 3.50365 12.2916L1.77962 10.0609C1.72773 9.99422 1.70914 9.91593 1.72717 9.83996C1.7452 9.764 1.79869 9.69531 1.87806 9.64619L3.70053 8.57669C3.66166 8.36591 3.64115 8.15345 3.63914 7.94067C3.6407 7.73094 3.66121 7.52154 3.70053 7.3139L1.87806 6.2444C1.79869 6.19527 1.7452 6.12659 1.72717 6.05063C1.70914 5.97467 1.72773 5.89637 1.77962 5.82973L3.50365 3.59872C3.55606 3.53268 3.63786 3.4826 3.73466 3.4573C3.83147 3.432 3.93708 3.4331 4.03291 3.46041L6.17578 4.1057C6.62199 3.84814 7.11029 3.6344 7.62881 3.46967L7.94921 1.76442C7.96714 1.68804 8.01991 1.6187 8.09849 1.56824C8.17707 1.51779 8.27658 1.48935 8.38003 1.48779H11.8281C11.9297 1.48927 12.0275 1.51652 12.1058 1.56508C12.184 1.61364 12.238 1.68065 12.2589 1.75517L12.5793 3.46041C13.0999 3.62312 13.5892 3.83721 14.0342 4.097L16.1752 3.45171C16.271 3.42438 16.3766 3.42324 16.4734 3.44849C16.5702 3.47373 16.652 3.52375 16.7045 3.58975L18.4285 5.82076C18.4804 5.88739 18.499 5.96569 18.4809 6.04165C18.4629 6.11762 18.4094 6.1863 18.3301 6.23542L16.5076 7.30492C16.5464 7.51561 16.5669 7.72798 16.569 7.94067Z" fill="#718096"/>
</svg>
