<svg width="20" height="16" viewBox="0 0 20 16" fill="none" xmlns="http://www.w3.org/2000/svg">
<path d="M17.3082 10.3339C17.246 10.2778 17.185 10.2217 17.1251 10.1675C16.3017 9.42093 15.8035 8.97035 15.8035 6.8569C15.8035 5.76272 15.4543 4.86492 14.7659 4.19158C14.2584 3.69415 13.5723 3.3168 12.668 3.03792C12.6563 3.03307 12.6459 3.0267 12.6373 3.01912C12.312 2.20269 11.4219 1.65588 10.4181 1.65588C9.41419 1.65588 8.52447 2.20269 8.19921 3.01828C8.19053 3.02558 8.18028 3.03175 8.16889 3.03652C6.05859 3.6877 5.033 4.93703 5.033 6.85606C5.033 8.97035 4.53556 9.42093 3.71135 10.1667C3.65146 10.2208 3.59045 10.2758 3.52832 10.333C3.36782 10.4781 3.26613 10.6546 3.23528 10.8417C3.20444 11.0287 3.24573 11.2185 3.35427 11.3885C3.58521 11.7532 4.07741 11.9796 4.63924 11.9796H16.201C16.7602 11.9796 17.249 11.7535 17.4807 11.3905C17.5897 11.2204 17.6314 11.0305 17.6008 10.8432C17.5703 10.656 17.4687 10.4792 17.3082 10.3339Z" fill="#718096"/>
<path d="M10.418 14.2251C10.9588 14.2248 11.4895 14.1147 11.9537 13.9066C12.4179 13.6985 12.7983 13.4001 13.0545 13.0431C13.0666 13.026 13.0726 13.0068 13.0718 12.9875C13.0711 12.9681 13.0637 12.9493 13.0504 12.9327C13.0371 12.9161 13.0182 12.9024 12.9957 12.8929C12.9732 12.8834 12.9479 12.8784 12.922 12.8784H7.91465C7.8888 12.8784 7.86336 12.8833 7.84081 12.8928C7.81827 12.9023 7.79939 12.916 7.78601 12.9326C7.77263 12.9491 7.76521 12.968 7.76447 12.9874C7.76372 13.0068 7.76969 13.026 7.78177 13.0431C8.03799 13.4001 8.41833 13.6985 8.88244 13.9066C9.34656 14.1147 9.87716 14.2247 10.418 14.2251Z" fill="#718096"/>
</svg>
