<svg width="15" height="16" viewBox="0 0 15 16" fill="none" xmlns="http://www.w3.org/2000/svg">
<path d="M13.9933 1.62129C13.9879 1.59538 13.9753 1.57153 13.9569 1.55254C13.9384 1.53355 13.915 1.5202 13.8892 1.51406C12.1733 1.09453 8.20859 2.58955 6.06054 4.73672C5.67742 5.11675 5.32815 5.52944 5.0167 5.97012C4.35429 5.91152 3.69189 5.96045 3.12734 6.20654C1.53447 6.90762 1.0707 8.73691 0.941501 9.52383C0.934173 9.5669 0.936937 9.61108 0.949577 9.6529C0.962216 9.69473 0.984386 9.73304 1.01434 9.76485C1.0443 9.79665 1.08123 9.82107 1.12222 9.83618C1.16321 9.8513 1.20715 9.8567 1.25058 9.85195L3.80849 9.56982C3.81032 9.76267 3.82196 9.9553 3.84336 10.147C3.85623 10.2801 3.91531 10.4045 4.01035 10.4985L5.00087 11.4867C5.09503 11.5816 5.21938 11.6407 5.35244 11.6537C5.54303 11.675 5.73459 11.6867 5.92636 11.6886L5.6457 14.2433C5.64102 14.2867 5.64646 14.3306 5.66159 14.3716C5.67673 14.4125 5.70115 14.4494 5.73294 14.4794C5.76472 14.5093 5.80302 14.5315 5.84481 14.5441C5.8866 14.5568 5.93076 14.5596 5.97382 14.5523C6.75927 14.4264 8.59179 13.9626 9.28876 12.3697C9.53486 11.8052 9.58525 11.146 9.52841 10.4868C9.97016 10.1753 10.3839 9.82597 10.765 9.44268C12.9198 7.29873 14.4063 3.42246 13.9933 1.62129ZM8.61523 6.88506C8.41847 6.68843 8.28445 6.43786 8.23011 6.16505C8.17578 5.89224 8.20357 5.60944 8.30998 5.35243C8.41639 5.09542 8.59663 4.87574 8.8279 4.72117C9.05918 4.56661 9.3311 4.48412 9.60927 4.48412C9.88744 4.48412 10.1594 4.56661 10.3906 4.72117C10.6219 4.87574 10.8022 5.09542 10.9086 5.35243C11.015 5.60944 11.0428 5.89224 10.9884 6.16505C10.9341 6.43786 10.8001 6.68843 10.6033 6.88506C10.4728 7.01572 10.3179 7.11937 10.1473 7.1901C9.97676 7.26082 9.79392 7.29722 9.60927 7.29722C9.42462 7.29722 9.24179 7.26082 9.07122 7.1901C8.90065 7.11937 8.7457 7.01572 8.61523 6.88506Z" fill="#89D2E6"/>
<path d="M4.93359 12.203C4.77305 12.3639 4.51553 12.4266 4.20557 12.4802C3.50918 12.5988 2.89424 11.9971 3.01934 11.2931C3.06709 11.0262 3.2083 10.6521 3.29619 10.5642C3.3154 10.5453 3.32819 10.5209 3.33273 10.4944C3.33728 10.4679 3.33336 10.4406 3.32152 10.4164C3.30968 10.3923 3.29053 10.3724 3.26679 10.3598C3.24305 10.3471 3.21592 10.3423 3.18926 10.3459C2.79983 10.3935 2.43754 10.5701 2.16006 10.8475C1.47129 11.5368 1.40625 14.0947 1.40625 14.0947C1.40625 14.0947 3.96562 14.0297 4.65439 13.3403C4.93261 13.0631 5.10939 12.7002 5.15625 12.3103C5.16709 12.1878 5.01797 12.1148 4.93359 12.203Z" fill="#89D2E6"/>
</svg>
