<svg width="13" height="12" viewBox="0 0 13 12" fill="none" xmlns="http://www.w3.org/2000/svg">
<path d="M8.29627 1.51359C7.84018 1.02117 7.20315 0.75 6.50002 0.75C5.79315 0.75 5.15401 1.01953 4.70002 1.50891C4.24112 2.00367 4.01752 2.67609 4.07002 3.40219C4.17409 4.83469 5.26416 6 6.50002 6C7.73588 6 8.82408 4.83492 8.92979 3.40265C8.98299 2.68312 8.75799 2.01211 8.29627 1.51359Z" fill="#718096"/>
<path d="M10.6251 11.249H2.37513C2.26715 11.2504 2.16021 11.2277 2.06209 11.1826C1.96398 11.1375 1.87716 11.0711 1.80795 10.9882C1.6556 10.8061 1.5942 10.5574 1.63967 10.3059C1.83748 9.20855 2.45482 8.28676 3.42513 7.63965C4.28716 7.0652 5.37912 6.74902 6.50013 6.74902C7.62115 6.74902 8.7131 7.06543 9.57513 7.63965C10.5454 8.28652 11.1628 9.20832 11.3606 10.3057C11.4061 10.5571 11.3447 10.8058 11.1923 10.9879C11.1231 11.0709 11.0363 11.1373 10.9382 11.1825C10.8401 11.2277 10.7331 11.2504 10.6251 11.249Z" fill="#718096"/>
</svg>
