<svg width="20" height="20" viewBox="0 0 20 20" fill="none" xmlns="http://www.w3.org/2000/svg">
<path d="M13.0739 3.13646C12.3414 2.34557 11.3182 1.91003 10.1889 1.91003C9.05357 1.91003 8.02703 2.34294 7.29787 3.12894C6.56081 3.92359 6.20169 5.00359 6.28601 6.16979C6.45315 8.47057 8.20395 10.3422 10.1889 10.3422C12.1739 10.3422 13.9216 8.47095 14.0914 6.17054C14.1769 5.01488 13.8155 3.93715 13.0739 3.13646Z" fill="#718096"/>
<path d="M16.8143 18.7736H3.5637C3.39026 18.7759 3.2185 18.7394 3.06092 18.6669C2.90333 18.5945 2.76389 18.4878 2.65272 18.3546C2.40804 18.0621 2.30941 17.6627 2.38244 17.2588C2.70015 15.4963 3.69169 14.0158 5.25013 12.9765C6.63467 12.0538 8.38849 11.546 10.189 11.546C11.9895 11.546 13.7433 12.0542 15.1278 12.9765C16.6863 14.0154 17.6778 15.496 17.9955 17.2584C18.0686 17.6624 17.9699 18.0618 17.7252 18.3543C17.6141 18.4875 17.4747 18.5942 17.3171 18.6668C17.1595 18.7393 16.9877 18.7758 16.8143 18.7736Z" fill="#718096"/>
</svg>
