<svg width="24" height="26" viewBox="0 0 24 26" fill="none" xmlns="http://www.w3.org/2000/svg">
<path d="M15.5121 4.00472C14.607 3.0161 13.3427 2.47168 11.9473 2.47168C10.5445 2.47168 9.27605 3.01281 8.37508 3.99531C7.46434 4.98863 7.0206 6.33863 7.12479 7.79638C7.33131 10.6724 9.49467 13.0119 11.9473 13.0119C14.4 13.0119 16.5596 10.6728 16.7694 7.79732C16.875 6.35274 16.4285 5.00557 15.5121 4.00472Z" fill="#89D2E6"/>
<path d="M20.134 23.5508H3.76117C3.54686 23.5537 3.33463 23.5081 3.13991 23.4175C2.9452 23.3269 2.77289 23.1936 2.63553 23.0271C2.33319 22.6615 2.21133 22.1623 2.30157 21.6574C2.69414 19.4543 3.91931 17.6036 5.84498 16.3044C7.55576 15.1511 9.72283 14.5164 11.9476 14.5164C14.1723 14.5164 16.3394 15.1516 18.0502 16.3044C19.9758 17.6031 21.201 19.4538 21.5936 21.6569C21.6838 22.1618 21.562 22.661 21.2596 23.0266C21.1223 23.1932 20.95 23.3266 20.7553 23.4173C20.5606 23.508 20.3483 23.5536 20.134 23.5508Z" fill="#89D2E6"/>
</svg>
