<svg width="24" height="25" viewBox="0 0 24 25" fill="none" xmlns="http://www.w3.org/2000/svg">
<path d="M21.9761 6.5497C21.9225 6.44426 21.845 6.35312 21.75 6.28369C21.655 6.21426 21.5452 6.16852 21.4294 6.15017C21.3136 6.13183 21.1952 6.1414 21.0837 6.17812C20.9723 6.21484 20.871 6.27767 20.7881 6.36148L17.9303 9.2544C17.79 9.39426 17.601 9.47266 17.404 9.47266C17.207 9.47266 17.018 9.39426 16.8777 9.2544L15.6423 8.00275C15.5732 7.93283 15.5183 7.84983 15.4809 7.75848C15.4435 7.66712 15.4243 7.56921 15.4243 7.47032C15.4243 7.37144 15.4435 7.27353 15.4809 7.18217C15.5183 7.09082 15.5732 7.00781 15.6423 6.9379L18.488 4.05863C18.5733 3.97234 18.6366 3.86637 18.6724 3.74984C18.7083 3.63331 18.7155 3.50971 18.6937 3.38969C18.6718 3.26968 18.6214 3.15684 18.5468 3.06091C18.4723 2.96497 18.3758 2.88881 18.2657 2.83898C16.1163 1.86683 13.4334 2.37408 11.7416 4.07275C10.3044 5.51638 9.87598 7.77218 10.5672 10.2618C10.6044 10.3946 10.6047 10.5352 10.5678 10.6681C10.5309 10.801 10.4584 10.9209 10.3583 11.0147L2.61473 18.1694C2.31306 18.4434 2.06973 18.7767 1.89959 19.1489C1.72945 19.5212 1.63605 19.9246 1.62511 20.3346C1.61417 20.7446 1.6859 21.1526 1.83594 21.5336C1.98598 21.9146 2.21117 22.2607 2.49778 22.5508C2.78439 22.8408 3.12642 23.0688 3.50299 23.2207C3.87956 23.3727 4.28278 23.4454 4.68806 23.4346C5.09334 23.4237 5.49217 23.3294 5.86024 23.1574C6.2283 22.9855 6.55788 22.7394 6.82887 22.4344L13.9771 14.5833C14.0685 14.4834 14.185 14.4105 14.3143 14.3726C14.4436 14.3347 14.5806 14.3332 14.7106 14.3683C15.4113 14.5625 16.134 14.6633 16.8605 14.668C18.414 14.668 19.7774 14.1594 20.7607 13.1792C22.5817 11.3643 22.8594 8.28601 21.9761 6.5497ZM4.7632 21.9191C4.45686 21.953 4.14769 21.8898 3.87836 21.7383C3.60904 21.5868 3.39283 21.3545 3.25959 21.0734C3.12634 20.7923 3.08262 20.4763 3.13446 20.169C3.1863 19.8617 3.33115 19.5782 3.54902 19.3577C3.76688 19.1373 4.04702 18.9906 4.35077 18.9381C4.65451 18.8855 4.9669 18.9297 5.24481 19.0643C5.52272 19.199 5.75245 19.4177 5.9023 19.6901C6.05215 19.9625 6.11473 20.2752 6.0814 20.5851C6.04472 20.9261 5.89407 21.2442 5.65436 21.4868C5.41465 21.7294 5.10025 21.8819 4.7632 21.9191Z" fill="#89D2E6"/>
</svg>
