<svg width="24" height="25" viewBox="0 0 24 25" fill="none" xmlns="http://www.w3.org/2000/svg">
<path d="M22.257 2.22963C22.2485 2.18801 22.2285 2.14971 22.1992 2.11921C22.17 2.0887 22.1328 2.06727 22.0919 2.05741C19.3676 1.38359 13.0729 3.78478 9.66251 7.23341C9.05423 7.84378 8.49971 8.50662 8.00522 9.21441C6.95355 9.1203 5.90187 9.19888 5.00555 9.59414C2.4766 10.7202 1.74029 13.6582 1.53516 14.9221C1.52353 14.9913 1.52792 15.0623 1.54798 15.1294C1.56805 15.1966 1.60325 15.2582 1.65081 15.3092C1.69837 15.3603 1.757 15.3995 1.82208 15.4238C1.88716 15.4481 1.95693 15.4568 2.02588 15.4491L6.087 14.996C6.0899 15.3057 6.10837 15.6151 6.14235 15.923C6.16278 16.1368 6.25659 16.3365 6.40747 16.4876L7.9801 18.0748C8.1296 18.2272 8.32701 18.3221 8.53827 18.343C8.84087 18.3772 9.145 18.3959 9.44947 18.399L9.00387 22.5022C8.99644 22.5719 9.00508 22.6424 9.02911 22.7082C9.05314 22.774 9.09191 22.8333 9.14237 22.8814C9.19284 22.9295 9.25364 22.9651 9.31999 22.9854C9.38635 23.0057 9.45646 23.0103 9.52483 22.9986C10.7719 22.7962 13.6813 22.0514 14.7879 19.493C15.1786 18.5863 15.2586 17.5275 15.1683 16.4688C15.8697 15.9685 16.5266 15.4074 17.1317 14.7918C20.5528 11.3483 22.9129 5.12255 22.257 2.22963ZM13.7185 10.6839C13.4061 10.3681 13.1933 9.96567 13.1071 9.5275C13.0208 9.08933 13.0649 8.63512 13.2339 8.22232C13.4028 7.80953 13.689 7.45669 14.0562 7.20845C14.4234 6.9602 14.8551 6.8277 15.2967 6.8277C15.7384 6.8277 16.1701 6.9602 16.5373 7.20845C16.9045 7.45669 17.1906 7.80953 17.3596 8.22232C17.5285 8.63512 17.5726 9.08933 17.4864 9.5275C17.4001 9.96567 17.1873 10.3681 16.8749 10.6839C16.6678 10.8938 16.4218 11.0603 16.151 11.1739C15.8802 11.2874 15.5899 11.3459 15.2967 11.3459C15.0036 11.3459 14.7133 11.2874 14.4425 11.1739C14.1717 11.0603 13.9256 10.8938 13.7185 10.6839Z" fill="#89D2E6"/>
<path d="M7.8732 19.2244C7.61831 19.4827 7.20945 19.5834 6.71734 19.6696C5.6117 19.8601 4.63538 18.8936 4.83399 17.7629C4.90981 17.3342 5.13401 16.7334 5.27355 16.5922C5.30405 16.5619 5.32435 16.5227 5.33157 16.4801C5.33879 16.4375 5.33256 16.3937 5.31376 16.3549C5.29497 16.3161 5.26456 16.2843 5.22687 16.2639C5.18917 16.2436 5.1461 16.2358 5.10377 16.2416C4.4855 16.3182 3.9103 16.6017 3.46975 17.0472C2.37621 18.1544 2.27295 22.2627 2.27295 22.2627C2.27295 22.2627 6.33639 22.1583 7.42993 21.0511C7.87165 20.6058 8.15232 20.023 8.22671 19.3966C8.24392 19.2 8.00716 19.0828 7.8732 19.2244Z" fill="#89D2E6"/>
</svg>
