<svg width="24" height="25" viewBox="0 0 24 25" fill="none" xmlns="http://www.w3.org/2000/svg">
<path d="M19.948 11.2383H13.4361C12.844 11.2383 12.2761 11.0004 11.8574 10.5768C11.4387 10.1532 11.2034 9.57874 11.2034 8.97972V2.39208C11.2034 2.34216 11.1838 2.29428 11.1489 2.25899C11.114 2.22369 11.0667 2.20386 11.0174 2.20386H6.73811C5.94859 2.20386 5.19141 2.52114 4.63314 3.0859C4.07486 3.65067 3.76123 4.41665 3.76123 5.21535V20.2728C3.76123 21.0715 4.07486 21.8375 4.63314 22.4023C5.19141 22.967 5.94859 23.2843 6.73811 23.2843H17.1572C17.9467 23.2843 18.7039 22.967 19.2622 22.4023C19.8204 21.8375 20.1341 21.0715 20.1341 20.2728V11.4266C20.1341 11.3766 20.1145 11.3288 20.0796 11.2935C20.0447 11.2582 19.9974 11.2383 19.948 11.2383Z" fill="#89D2E6"/>
<path d="M19.5396 9.5731L12.8505 2.80618C12.8375 2.79309 12.821 2.78419 12.803 2.7806C12.785 2.777 12.7663 2.77886 12.7494 2.78595C12.7324 2.79304 12.7179 2.80504 12.7077 2.82045C12.6975 2.83585 12.692 2.85397 12.6919 2.87252V8.98068C12.6919 9.18036 12.7703 9.37185 12.9099 9.51304C13.0494 9.65423 13.2387 9.73355 13.4361 9.73355H19.4741C19.4924 9.73348 19.5103 9.72792 19.5255 9.71757C19.5408 9.70722 19.5526 9.69255 19.5596 9.67541C19.5666 9.65826 19.5685 9.6394 19.5649 9.62119C19.5614 9.60299 19.5526 9.58626 19.5396 9.5731Z" fill="#89D2E6"/>
</svg>
