<svg width="15" height="15" viewBox="0 0 15 15" fill="none" xmlns="http://www.w3.org/2000/svg">
<path d="M7.5 1.40625C4.13994 1.40625 1.40625 4.13994 1.40625 7.5C1.40625 10.8601 4.13994 13.5937 7.5 13.5937C10.8601 13.5937 13.5937 10.8601 13.5937 7.5C13.5937 4.13994 10.8601 1.40625 7.5 1.40625ZM10.6714 5.45771L6.73389 10.1452C6.69069 10.1967 6.63695 10.2382 6.57629 10.2671C6.51564 10.2959 6.44949 10.3114 6.38232 10.3125H6.37441C6.30871 10.3125 6.24375 10.2986 6.18374 10.2719C6.12373 10.2451 6.07001 10.2061 6.02607 10.1572L4.33857 8.28223C4.29572 8.23677 4.26238 8.18321 4.24052 8.12468C4.21866 8.06616 4.20872 8.00386 4.21128 7.94144C4.21384 7.87902 4.22886 7.81774 4.25544 7.7612C4.28202 7.70467 4.31964 7.65402 4.36608 7.61223C4.41251 7.57044 4.46684 7.53835 4.52585 7.51786C4.58487 7.49736 4.64738 7.48887 4.70973 7.49288C4.77207 7.49689 4.83298 7.51332 4.88889 7.54121C4.94479 7.5691 4.99455 7.60788 5.03525 7.65527L6.36211 9.12949L9.95361 4.85478C10.0342 4.76164 10.1482 4.70395 10.2709 4.69416C10.3937 4.68438 10.5153 4.7233 10.6096 4.80251C10.7039 4.88172 10.7633 4.99485 10.7748 5.11745C10.7864 5.24006 10.7492 5.36229 10.6714 5.45771Z" fill="#68D391"/>
</svg>
