<svg width="13" height="13" viewBox="0 0 13 13" fill="none" xmlns="http://www.w3.org/2000/svg">
<path d="M6.50003 4.625C6.12919 4.625 5.76668 4.73497 5.45834 4.94099C5.15 5.14702 4.90967 5.43986 4.76776 5.78247C4.62584 6.12508 4.58871 6.50208 4.66106 6.86579C4.73341 7.22951 4.91198 7.5636 5.17421 7.82582C5.43643 8.08805 5.77052 8.26662 6.13424 8.33897C6.49795 8.41132 6.87495 8.37419 7.21756 8.23227C7.56017 8.09036 7.85301 7.85003 8.05904 7.54169C8.26506 7.23335 8.37503 6.87084 8.37503 6.5C8.37355 6.00317 8.17553 5.52712 7.82422 5.17581C7.47291 4.8245 6.99686 4.62648 6.50003 4.625ZM10.5482 6.5C10.5472 6.6752 10.5343 6.85013 10.5097 7.02359L11.6509 7.91703C11.7006 7.95807 11.7341 8.01544 11.7454 8.0789C11.7567 8.14236 11.745 8.20777 11.7125 8.26343L10.633 10.1272C10.6002 10.1824 10.549 10.2242 10.4883 10.2453C10.4277 10.2665 10.3616 10.2655 10.3016 10.2427L8.9598 9.70367C8.68039 9.91882 8.37463 10.0974 8.04995 10.235L7.84933 11.6595C7.8381 11.7233 7.80506 11.7813 7.75586 11.8234C7.70665 11.8656 7.64434 11.8893 7.57956 11.8906H5.4205C5.3569 11.8894 5.2956 11.8666 5.24661 11.8261C5.19761 11.7855 5.16382 11.7295 5.15073 11.6673L4.95011 10.2427C4.62453 10.1067 4.31855 9.92787 4.04027 9.71093L2.69847 10.25C2.63849 10.2728 2.57238 10.2738 2.51177 10.2527C2.45115 10.2316 2.39992 10.1898 2.36706 10.1347L1.28753 8.27117C1.25504 8.2155 1.2434 8.1501 1.25469 8.08664C1.26598 8.02318 1.29947 7.9658 1.34917 7.92476L2.49035 7.03133C2.466 6.85524 2.45317 6.67775 2.45191 6.5C2.45288 6.3248 2.46572 6.14987 2.49035 5.9764L1.34917 5.08297C1.29947 5.04193 1.26598 4.98455 1.25469 4.92109C1.2434 4.85763 1.25504 4.79223 1.28753 4.73656L2.36706 2.87281C2.39988 2.81764 2.4511 2.77581 2.51172 2.75467C2.57234 2.73354 2.63846 2.73446 2.69847 2.75727L4.04027 3.29633C4.31967 3.08117 4.62543 2.90262 4.95011 2.765L5.15073 1.34047C5.16196 1.27666 5.195 1.21873 5.24421 1.17658C5.29341 1.13443 5.35572 1.11068 5.4205 1.10938H7.57956C7.64316 1.11061 7.70446 1.13337 7.75345 1.17394C7.80245 1.21451 7.83625 1.27048 7.84933 1.33273L8.04995 2.75727C8.37594 2.8932 8.68232 3.07204 8.96097 3.28906L10.3016 2.75C10.3616 2.72717 10.4277 2.72622 10.4883 2.74731C10.5489 2.7684 10.6001 2.81018 10.633 2.86531L11.7125 4.72906C11.745 4.78473 11.7567 4.85013 11.7454 4.91359C11.7341 4.97705 11.7006 5.03443 11.6509 5.07547L10.5097 5.9689C10.534 6.14491 10.5469 6.32232 10.5482 6.5Z" fill="#718096"/>
</svg>
