<svg width="15" height="16" viewBox="0 0 15 16" fill="none" xmlns="http://www.w3.org/2000/svg">
<path d="M0.9375 11.5151C0.9375 11.9503 1.11035 12.3676 1.41803 12.6752C1.7257 12.9829 2.143 13.1558 2.57812 13.1558H12.4219C12.857 13.1558 13.2743 12.9829 13.582 12.6752C13.8896 12.3676 14.0625 11.9503 14.0625 11.5151V7.00342H0.9375V11.5151ZM2.87109 9.28857C2.87109 9.05547 2.96369 8.83192 3.12852 8.66709C3.29335 8.50227 3.5169 8.40967 3.75 8.40967H5.15625C5.38935 8.40967 5.6129 8.50227 5.77773 8.66709C5.94256 8.83192 6.03515 9.05547 6.03515 9.28857V9.87451C6.03515 10.1076 5.94256 10.3312 5.77773 10.496C5.6129 10.6608 5.38935 10.7534 5.15625 10.7534H3.75C3.5169 10.7534 3.29335 10.6608 3.12852 10.496C2.96369 10.3312 2.87109 10.1076 2.87109 9.87451V9.28857Z" fill="#89D2E6"/>
<path d="M12.4219 2.84277H2.57812C2.143 2.84277 1.7257 3.01562 1.41803 3.3233C1.11035 3.63098 0.9375 4.04828 0.9375 4.4834V5.24512H14.0625V4.4834C14.0625 4.04828 13.8896 3.63098 13.582 3.3233C13.2743 3.01562 12.857 2.84277 12.4219 2.84277Z" fill="#89D2E6"/>
</svg>
