<svg width="15" height="16" viewBox="0 0 15 16" fill="none" xmlns="http://www.w3.org/2000/svg">
<path d="M13.7563 4.03136C13.7226 3.96571 13.6738 3.90896 13.6139 3.86574C13.5541 3.82251 13.4849 3.79403 13.412 3.7826C13.3391 3.77118 13.2645 3.77715 13.1943 3.80001C13.1241 3.82287 13.0603 3.86199 13.0081 3.91417L11.2081 5.71534C11.1197 5.80242 11.0006 5.85123 10.8766 5.85123C10.7525 5.85123 10.6334 5.80242 10.5451 5.71534L9.76696 4.93604C9.72342 4.89252 9.68889 4.84084 9.66532 4.78396C9.64176 4.72708 9.62963 4.66612 9.62963 4.60455C9.62963 4.54298 9.64176 4.48202 9.66532 4.42514C9.68889 4.36826 9.72342 4.31659 9.76696 4.27306L11.5593 2.48038C11.6131 2.42666 11.6529 2.36068 11.6755 2.28812C11.6981 2.21557 11.7027 2.13861 11.6889 2.06389C11.6751 1.98917 11.6434 1.91892 11.5964 1.85918C11.5494 1.79945 11.4887 1.75203 11.4193 1.72101C10.0655 1.11573 8.37566 1.43155 7.31013 2.48917C6.40486 3.388 6.13503 4.79249 6.57038 6.34259C6.59386 6.42525 6.59399 6.51279 6.57077 6.59553C6.54756 6.67826 6.50189 6.75296 6.43884 6.81134L1.5615 11.2659C1.37149 11.4365 1.21823 11.644 1.11107 11.8758C1.0039 12.1076 0.945078 12.3588 0.938185 12.6141C0.931292 12.8693 0.976475 13.1233 1.07098 13.3605C1.16548 13.5978 1.30732 13.8132 1.48784 13.9938C1.66836 14.1745 1.88379 14.3164 2.12097 14.411C2.35816 14.5056 2.61213 14.5509 2.86739 14.5441C3.12266 14.5373 3.37387 14.4786 3.6057 14.3716C3.83753 14.2645 4.04511 14.1113 4.21579 13.9214L8.71814 9.03321C8.77568 8.97097 8.84911 8.92561 8.93052 8.90202C9.01194 8.87843 9.09824 8.87749 9.18015 8.89932C9.62146 9.02024 10.0767 9.08298 10.5342 9.08595C11.5128 9.08595 12.3715 8.76925 12.9908 8.15899C14.1378 7.02901 14.3127 5.11241 13.7563 4.03136ZM2.91472 13.6006C2.72177 13.6217 2.52704 13.5823 2.35741 13.488C2.18777 13.3937 2.05159 13.249 1.96767 13.074C1.88374 12.899 1.8562 12.7022 1.88886 12.5109C1.92151 12.3196 2.01274 12.1431 2.14996 12.0058C2.28719 11.8686 2.46363 11.7773 2.65495 11.7445C2.84627 11.7118 3.04302 11.7393 3.21807 11.8232C3.39311 11.907 3.53781 12.0431 3.63219 12.2128C3.72657 12.3824 3.76599 12.5771 3.74499 12.77C3.7219 12.9823 3.62701 13.1804 3.47602 13.3314C3.32504 13.4825 3.12702 13.5774 2.91472 13.6006Z" fill="#89D2E6"/>
</svg>
