<svg width="13" height="13" viewBox="0 0 13 13" fill="none" xmlns="http://www.w3.org/2000/svg">
<path d="M11.7136 3.19312C11.6855 3.13842 11.6448 3.09113 11.595 3.05511C11.5451 3.01908 11.4874 2.99535 11.4266 2.98583C11.3659 2.97631 11.3037 2.98128 11.2452 3.00033C11.1867 3.01938 11.1336 3.05198 11.0901 3.09547L9.59006 4.59644C9.51643 4.66901 9.4172 4.70969 9.31382 4.70969C9.21044 4.70969 9.11121 4.66901 9.03757 4.59644L8.38914 3.94703C8.35285 3.91075 8.32407 3.86769 8.30444 3.82029C8.2848 3.77289 8.27469 3.72209 8.27469 3.67078C8.27469 3.61948 8.2848 3.56868 8.30444 3.52128C8.32407 3.47388 8.35285 3.43081 8.38914 3.39454L9.88279 1.90064C9.92756 1.85587 9.96079 1.80089 9.97959 1.74043C9.9984 1.67996 10.0022 1.61584 9.99074 1.55357C9.97926 1.4913 9.95281 1.43276 9.91367 1.38298C9.87454 1.3332 9.82389 1.29368 9.76609 1.26783C8.63792 0.763436 7.22971 1.02662 6.34177 1.90797C5.58738 2.65699 5.36253 3.8274 5.72532 5.11915C5.74488 5.18803 5.74499 5.26099 5.72565 5.32993C5.7063 5.39888 5.66824 5.46112 5.6157 5.50977L1.55125 9.22193C1.39291 9.3641 1.26519 9.53703 1.17589 9.73018C1.08658 9.92333 1.03756 10.1326 1.03182 10.3454C1.02608 10.5581 1.06373 10.7697 1.14248 10.9674C1.22123 11.1651 1.33943 11.3447 1.48987 11.4952C1.6403 11.6457 1.81982 11.764 2.01748 11.8428C2.21513 11.9217 2.42677 11.9594 2.6395 11.9538C2.85222 11.9481 3.06156 11.8992 3.25475 11.81C3.44794 11.7207 3.62093 11.5931 3.76316 11.4348L7.51511 7.36134C7.56306 7.30947 7.62426 7.27167 7.6921 7.25201C7.75995 7.23235 7.83187 7.23157 7.90012 7.24976C8.26788 7.35053 8.64723 7.40281 9.02854 7.40528C9.84397 7.40528 10.5595 7.14136 11.0757 6.63282C12.0315 5.69117 12.1772 4.094 11.7136 3.19312ZM2.67893 11.1675C2.51814 11.185 2.35587 11.1522 2.2145 11.0736C2.07314 10.995 1.95966 10.8745 1.88972 10.7287C1.81978 10.5828 1.79684 10.4189 1.82405 10.2594C1.85126 10.1 1.92729 9.95291 2.04164 9.83852C2.15599 9.72413 2.30303 9.64805 2.46246 9.62078C2.62189 9.59351 2.78585 9.6164 2.93172 9.68629C3.07759 9.75618 3.19817 9.86962 3.27682 10.011C3.35548 10.1523 3.38832 10.3146 3.37083 10.4753C3.35158 10.6523 3.2725 10.8173 3.14669 10.9432C3.02087 11.069 2.85585 11.1482 2.67893 11.1675Z" fill="white"/>
</svg>
