<svg width="24" height="25" viewBox="0 0 24 25" fill="none" xmlns="http://www.w3.org/2000/svg">
<g clip-path="url(#clip0_361_849)">
<path d="M12.2066 5.35112C12.1374 5.28411 12.0452 5.2467 11.9494 5.2467C11.8535 5.2467 11.7614 5.28411 11.6922 5.35112L3.12898 13.6266C3.09261 13.6618 3.06368 13.7041 3.04393 13.7509C3.02419 13.7978 3.01403 13.8481 3.01409 13.8991L3.0127 21.6659C3.0127 22.0652 3.16951 22.4482 3.44865 22.7306C3.72779 23.013 4.10638 23.1716 4.50113 23.1716H8.9711C9.16848 23.1716 9.35778 23.0923 9.49735 22.9511C9.63691 22.8099 9.71532 22.6184 9.71532 22.4188V16.0193C9.71532 15.9195 9.75453 15.8238 9.82431 15.7532C9.8941 15.6826 9.98874 15.6429 10.0874 15.6429H13.8085C13.9072 15.6429 14.0019 15.6826 14.0717 15.7532C14.1414 15.8238 14.1806 15.9195 14.1806 16.0193V22.4188C14.1806 22.6184 14.2591 22.8099 14.3986 22.9511C14.5382 23.0923 14.7275 23.1716 14.9249 23.1716H19.393C19.7877 23.1716 20.1663 23.013 20.4455 22.7306C20.7246 22.4482 20.8814 22.0652 20.8814 21.6659V13.8991C20.8815 13.8481 20.8713 13.7978 20.8516 13.7509C20.8318 13.7041 20.8029 13.6618 20.7665 13.6266L12.2066 5.35112Z" fill="white"/>
<path d="M22.875 12.0747L19.3958 8.70745V3.59779C19.3958 3.39811 19.3174 3.20662 19.1778 3.06543C19.0382 2.92423 18.8489 2.84491 18.6516 2.84491H16.4189C16.2215 2.84491 16.0322 2.92423 15.8927 3.06543C15.7531 3.20662 15.6747 3.39811 15.6747 3.59779V5.10354L12.9806 2.49765C12.7285 2.23979 12.3536 2.09204 11.9485 2.09204C11.5447 2.09204 11.1708 2.23979 10.9187 2.49812L1.02518 12.0737C0.735869 12.3561 0.699589 12.8205 0.962856 13.1263C1.02897 13.2035 1.10991 13.2663 1.20077 13.3109C1.29163 13.3554 1.3905 13.3808 1.49136 13.3855C1.59223 13.3901 1.69297 13.374 1.78747 13.338C1.88197 13.302 1.96824 13.247 2.04104 13.1762L11.6926 3.84624C11.7619 3.77922 11.854 3.74182 11.9499 3.74182C12.0457 3.74182 12.1378 3.77922 12.2071 3.84624L21.8596 13.1762C22.0018 13.3142 22.1922 13.3894 22.3892 13.3856C22.5862 13.3817 22.7736 13.299 22.9104 13.1555C23.196 12.8562 23.1722 12.3622 22.875 12.0747Z" fill="white"/>
</g>
<defs>
<clipPath id="clip0_361_849">
<rect width="23.815" height="24.092" fill="white" transform="translate(0.0405273 0.584961)"/>
</clipPath>
</defs>
</svg>
