<svg width="15" height="16" viewBox="0 0 15 16" fill="none" xmlns="http://www.w3.org/2000/svg">
<g clip-path="url(#clip0_237_804)">
<path d="M3.04687 15.0317H2.10937C1.92289 15.0317 1.74405 14.9577 1.61219 14.8258C1.48033 14.6939 1.40625 14.5151 1.40625 14.3286V10.1099C1.40625 9.92338 1.48033 9.74454 1.61219 9.61268C1.74405 9.48082 1.92289 9.40674 2.10937 9.40674H3.04687C3.23335 9.40674 3.4122 9.48082 3.54406 9.61268C3.67592 9.74454 3.75 9.92338 3.75 10.1099V14.3286C3.75 14.5151 3.67592 14.6939 3.54406 14.8258C3.4122 14.9577 3.23335 15.0317 3.04687 15.0317Z" fill="#89D2E6"/>
<path d="M9.60937 15.0308H8.67187C8.48539 15.0308 8.30655 14.9567 8.17469 14.8248C8.04283 14.693 7.96875 14.5141 7.96875 14.3276V7.29639C7.96875 7.10991 8.04283 6.93106 8.17469 6.7992C8.30655 6.66734 8.48539 6.59326 8.67187 6.59326H9.60937C9.79585 6.59326 9.9747 6.66734 10.1066 6.7992C10.2384 6.93106 10.3125 7.10991 10.3125 7.29639V14.3276C10.3125 14.5141 10.2384 14.693 10.1066 14.8248C9.9747 14.9567 9.79585 15.0308 9.60937 15.0308Z" fill="#89D2E6"/>
<path d="M12.8906 15.0312H11.9531C11.7666 15.0312 11.5878 14.9572 11.4559 14.8253C11.3241 14.6934 11.25 14.5146 11.25 14.3281V4.01562C11.25 3.82914 11.3241 3.6503 11.4559 3.51844C11.5878 3.38658 11.7666 3.3125 11.9531 3.3125H12.8906C13.0771 3.3125 13.2559 3.38658 13.3878 3.51844C13.5197 3.6503 13.5937 3.82914 13.5937 4.01562V14.3281C13.5937 14.5146 13.5197 14.6934 13.3878 14.8253C13.2559 14.9572 13.0771 15.0312 12.8906 15.0312Z" fill="#89D2E6"/>
<path d="M6.32812 15.0312H5.39062C5.20414 15.0312 5.0253 14.9572 4.89344 14.8253C4.76158 14.6934 4.6875 14.5146 4.6875 14.3281V1.67187C4.6875 1.48539 4.76158 1.30655 4.89344 1.17469C5.0253 1.04283 5.20414 0.96875 5.39062 0.96875H6.32812C6.5146 0.96875 6.69345 1.04283 6.82531 1.17469C6.95717 1.30655 7.03125 1.48539 7.03125 1.67187V14.3281C7.03125 14.5146 6.95717 14.6934 6.82531 14.8253C6.69345 14.9572 6.5146 15.0312 6.32812 15.0312Z" fill="#89D2E6"/>
</g>
<defs>
<clipPath id="clip0_237_804">
<rect width="15" height="15" fill="white" transform="translate(0 0.5)"/>
</clipPath>
</defs>
</svg>
