<svg width="24" height="25" viewBox="0 0 24 25" fill="none" xmlns="http://www.w3.org/2000/svg">
<path d="M1.62305 18.0491C1.62305 18.748 1.89748 19.4182 2.38597 19.9124C2.87445 20.4066 3.53699 20.6842 4.22782 20.6842H19.8564C20.5473 20.6842 21.2098 20.4066 21.6983 19.9124C22.1868 19.4182 22.4612 18.748 22.4612 18.0491V10.8027H1.62305V18.0491ZM4.69295 14.473C4.69295 14.0986 4.83997 13.7395 5.10166 13.4748C5.36335 13.2101 5.71828 13.0614 6.08836 13.0614H8.32102C8.69111 13.0614 9.04604 13.2101 9.30773 13.4748C9.56942 13.7395 9.71644 14.0986 9.71644 14.473V15.4141C9.71644 15.7885 9.56942 16.1475 9.30773 16.4123C9.04604 16.677 8.69111 16.8257 8.32102 16.8257H6.08836C5.71828 16.8257 5.36335 16.677 5.10166 16.4123C4.83997 16.1475 4.69295 15.7885 4.69295 15.4141V14.473Z" fill="#89D2E6"/>
<path d="M19.8564 4.12061H4.22782C3.53699 4.12061 2.87445 4.39823 2.38597 4.8924C1.89748 5.38656 1.62305 6.0568 1.62305 6.75566V7.97908H22.4612V6.75566C22.4612 6.0568 22.1868 5.38656 21.6983 4.8924C21.2098 4.39823 20.5473 4.12061 19.8564 4.12061Z" fill="#89D2E6"/>
</svg>
