<svg width="843" height="252" viewBox="0 0 843 252" fill="none" xmlns="http://www.w3.org/2000/svg">
<path d="M726.703 171.545C770.311 158.448 821.404 177.003 841.5 187.917V251.75H1.5V2C43.7009 9.49219 70.8301 71.0946 77.6124 110.22C83.1441 142.132 83.39 164.886 112.78 171.545C142.327 178.24 177.359 156.936 207 128.077C230.713 104.99 266.115 118.457 280.852 128.077C306.976 144.819 350.01 156.172 384.574 139.079C427.78 117.713 451.644 123.817 506.153 139.079C560.663 154.341 555.136 164.053 600.603 187.917C646.069 211.781 672.194 187.917 726.703 171.545Z" fill="url(#paint0_linear_237_575)"/>
<path d="M841.5 187.917C821.404 177.003 770.311 158.448 726.703 171.545C672.194 187.917 646.069 211.781 600.603 187.917C555.136 164.053 560.663 154.341 506.153 139.079C451.644 123.817 427.78 117.713 384.574 139.079C350.01 156.172 306.976 144.819 280.852 128.077C266.115 118.457 230.713 104.99 207 128.077C177.359 156.936 142.327 178.24 112.78 171.545C83.39 164.886 83.1441 142.132 77.6124 110.22C70.8301 71.0946 43.701 9.49219 1.5 2" stroke="#2D3748" stroke-width="3"/>
<path d="M115.414 144.457C72.1417 131.369 21.4412 149.91 1.5 160.817V251.5H840.5V36.9074C798.623 44.3941 763.05 42.4526 756.32 81.5498C750.831 113.438 750.587 136.175 721.423 142.83C692.103 149.52 675.059 110.387 645.646 81.5498C622.115 58.4798 582.486 88.5 567.862 98.1125C541.939 114.842 483.007 78.3408 457.467 49.648C421 8.67808 373.043 4.93083 336.823 49.648C300.604 94.3652 264.678 57.7034 219.561 81.5498C174.444 105.396 169.505 160.817 115.414 144.457Z" fill="url(#paint1_linear_237_575)"/>
<path d="M1.5 161C21.4412 150.079 72.1417 131.515 115.414 144.619C169.505 161 174.444 105.509 219.561 81.6318C264.678 57.7548 300.604 94.4636 336.823 49.6892C373.043 4.91473 421 8.66678 457.467 49.6892C483.007 78.4187 541.939 114.967 567.862 98.2157C582.486 88.5909 622.115 58.5322 645.646 81.6318C675.059 110.506 692.103 149.689 721.423 142.99C750.587 136.327 750.831 113.56 756.32 81.6318C763.05 42.4846 798.623 44.4285 840.5 36.9323" stroke="#89D2E6" stroke-width="3"/>
<defs>
<linearGradient id="paint0_linear_237_575" x1="421.5" y1="2" x2="421.5" y2="251.75" gradientUnits="userSpaceOnUse">
<stop stop-color="#2D3748" stop-opacity="0.36"/>
<stop offset="1" stop-color="#2D3748" stop-opacity="0"/>
</linearGradient>
<linearGradient id="paint1_linear_237_575" x1="421" y1="17.5" x2="421" y2="251.5" gradientUnits="userSpaceOnUse">
<stop stop-color="#89D2E6" stop-opacity="0.54"/>
<stop offset="1" stop-color="#4FD1C5" stop-opacity="0"/>
</linearGradient>
</defs>
</svg>
