<svg width="33" height="32" viewBox="0 0 33 32" fill="none" xmlns="http://www.w3.org/2000/svg">
<g clip-path="url(#clip0_386_817)">
<path d="M16.4176 10.7041C17.8619 10.7041 19.0437 9.52234 19.0437 8.07799C19.0437 6.63364 17.8619 5.4519 16.4176 5.4519C14.9732 5.4519 13.7915 6.63364 13.7915 8.07799C13.7915 9.52234 14.9732 10.7041 16.4176 10.7041ZM16.4176 13.3302C14.9732 13.3302 13.7915 14.5119 13.7915 15.9563C13.7915 17.4006 14.9732 18.5823 16.4176 18.5823C17.8619 18.5823 19.0437 17.4006 19.0437 15.9563C19.0437 14.5119 17.8619 13.3302 16.4176 13.3302ZM16.4176 21.2084C14.9732 21.2084 13.7915 22.3902 13.7915 23.8345C13.7915 25.2789 14.9732 26.4606 16.4176 26.4606C17.8619 26.4606 19.0437 25.2789 19.0437 23.8345C19.0437 22.3902 17.8619 21.2084 16.4176 21.2084Z" fill="#A3AED0"/>
</g>
<defs>
<clipPath id="clip0_386_817">
<rect width="31.513" height="31.513" fill="white" transform="translate(0.661133 0.199707)"/>
</clipPath>
</defs>
</svg>
