<svg width="61" height="62" viewBox="0 0 61 62" fill="none" xmlns="http://www.w3.org/2000/svg">
<rect x="0.174316" y="0.865723" width="60.8014" height="60.8014" rx="16.4328" fill="#F4F7FE"/>
<g clip-path="url(#clip0_386_422)">
<path d="M19.894 28.8015C18.0864 28.8015 16.6074 30.2805 16.6074 32.0881C16.6074 33.8957 18.0864 35.3746 19.894 35.3746C21.7016 35.3746 23.1805 33.8957 23.1805 32.0881C23.1805 30.2805 21.7016 28.8015 19.894 28.8015ZM39.6134 28.8015C37.8057 28.8015 36.3268 30.2805 36.3268 32.0881C36.3268 33.8957 37.8057 35.3746 39.6134 35.3746C41.421 35.3746 42.8999 33.8957 42.8999 32.0881C42.8999 30.2805 41.421 28.8015 39.6134 28.8015ZM29.7537 28.8015C27.9461 28.8015 26.4671 30.2805 26.4671 32.0881C26.4671 33.8957 27.9461 35.3746 29.7537 35.3746C31.5613 35.3746 33.0402 33.8957 33.0402 32.0881C33.0402 30.2805 31.5613 28.8015 29.7537 28.8015Z" fill="#89D2E6"/>
</g>
<defs>
<clipPath id="clip0_386_422">
<rect width="39.4387" height="39.4387" fill="white" transform="translate(10.0342 12.3687)"/>
</clipPath>
</defs>
</svg>
