<svg width="57" height="6" viewBox="0 0 57 6" fill="none" xmlns="http://www.w3.org/2000/svg">
<path fill-rule="evenodd" clip-rule="evenodd" d="M10.2682 5.90319C11.8205 5.90319 13.0789 4.64479 13.0789 3.09247C13.0789 1.54014 11.8205 0.281738 10.2682 0.281738C8.71586 0.281738 7.45745 1.54014 7.45745 3.09247C7.45745 4.64479 8.71586 5.90319 10.2682 5.90319ZM3.04071 5.90325C4.59303 5.90325 5.85144 4.64485 5.85144 3.09253C5.85144 1.5402 4.59303 0.281798 3.04071 0.281798C1.48839 0.281798 0.22998 1.5402 0.22998 3.09253C0.22998 4.64485 1.48839 5.90325 3.04071 5.90325ZM20.3064 3.09247C20.3064 4.64479 19.048 5.90319 17.4956 5.90319C15.9433 5.90319 14.6849 4.64479 14.6849 3.09247C14.6849 1.54014 15.9433 0.281738 17.4956 0.281738C19.048 0.281738 20.3064 1.54014 20.3064 3.09247ZM24.7235 5.90319C26.2758 5.90319 27.5342 4.64479 27.5342 3.09247C27.5342 1.54014 26.2758 0.281738 24.7235 0.281738C23.1712 0.281738 21.9128 1.54014 21.9128 3.09247C21.9128 4.64479 23.1712 5.90319 24.7235 5.90319ZM34.7617 3.09247C34.7617 4.64479 33.5033 5.90319 31.951 5.90319C30.3987 5.90319 29.1403 4.64479 29.1403 3.09247C29.1403 1.54014 30.3987 0.281738 31.951 0.281738C33.5033 0.281738 34.7617 1.54014 34.7617 3.09247ZM39.1785 5.90319C40.7308 5.90319 41.9892 4.64479 41.9892 3.09247C41.9892 1.54014 40.7308 0.281738 39.1785 0.281738C37.6261 0.281738 36.3677 1.54014 36.3677 3.09247C36.3677 4.64479 37.6261 5.90319 39.1785 5.90319ZM49.2171 3.09247C49.2171 4.64479 47.9586 5.90319 46.4063 5.90319C44.854 5.90319 43.5956 4.64479 43.5956 3.09247C43.5956 1.54014 44.854 0.281738 46.4063 0.281738C47.9586 0.281738 49.2171 1.54014 49.2171 3.09247ZM53.6338 5.90319C55.1861 5.90319 56.4445 4.64479 56.4445 3.09247C56.4445 1.54014 55.1861 0.281738 53.6338 0.281738C52.0815 0.281738 50.8231 1.54014 50.8231 3.09247C50.8231 4.64479 52.0815 5.90319 53.6338 5.90319Z" fill="black"/>
</svg>
