<svg width="35" height="4" viewBox="0 0 35 4" fill="none" xmlns="http://www.w3.org/2000/svg">
<path fill-rule="evenodd" clip-rule="evenodd" d="M6.24999 3.99707C7.21649 3.99707 7.99999 3.21357 7.99999 2.24707C7.99999 1.28057 7.21649 0.49707 6.24999 0.49707C5.28349 0.49707 4.49999 1.28057 4.49999 2.24707C4.49999 3.21357 5.28349 3.99707 6.24999 3.99707ZM1.75 3.9971C2.7165 3.9971 3.5 3.2136 3.5 2.2471C3.5 1.2806 2.7165 0.497099 1.75 0.497099C0.783502 0.497099 0 1.2806 0 2.2471C0 3.2136 0.783502 3.9971 1.75 3.9971ZM12.5 2.24707C12.5 3.21357 11.7165 3.99707 10.75 3.99707C9.7835 3.99707 9 3.21357 9 2.24707C9 1.28057 9.7835 0.49707 10.75 0.49707C11.7165 0.49707 12.5 1.28057 12.5 2.24707ZM15.25 3.99707C16.2165 3.99707 17 3.21357 17 2.24707C17 1.28057 16.2165 0.49707 15.25 0.49707C14.2835 0.49707 13.5 1.28057 13.5 2.24707C13.5 3.21357 14.2835 3.99707 15.25 3.99707ZM21.5 2.24707C21.5 3.21357 20.7165 3.99707 19.75 3.99707C18.7835 3.99707 18 3.21357 18 2.24707C18 1.28057 18.7835 0.49707 19.75 0.49707C20.7165 0.49707 21.5 1.28057 21.5 2.24707ZM24.25 3.99707C25.2165 3.99707 26 3.21357 26 2.24707C26 1.28057 25.2165 0.49707 24.25 0.49707C23.2835 0.49707 22.5 1.28057 22.5 2.24707C22.5 3.21357 23.2835 3.99707 24.25 3.99707ZM30.5 2.24707C30.5 3.21357 29.7165 3.99707 28.75 3.99707C27.7835 3.99707 27 3.21357 27 2.24707C27 1.28057 27.7835 0.49707 28.75 0.49707C29.7165 0.49707 30.5 1.28057 30.5 2.24707ZM33.25 3.99707C34.2165 3.99707 35 3.21357 35 2.24707C35 1.28057 34.2165 0.49707 33.25 0.49707C32.2835 0.49707 31.5 1.28057 31.5 2.24707C31.5 3.21357 32.2835 3.99707 33.25 3.99707Z" fill="black"/>
</svg>
