<svg width="397" height="115" viewBox="0 0 397 115" fill="none" xmlns="http://www.w3.org/2000/svg">
<g opacity="0.2" clip-path="url(#clip0_202_70)">
<line y1="34.5" x2="397" y2="34.5" stroke="#57339F"/>
<line y1="74.5" x2="397" y2="74.5" stroke="#57339F"/>
<line y1="114.5" x2="397" y2="114.5" stroke="#57339F"/>
<line x1="40.5" y1="-5" x2="40.5" y2="115" stroke="#57339F"/>
<line x1="80.5" y1="-5" x2="80.5" y2="115" stroke="#57339F"/>
<line x1="120.5" y1="-5" x2="120.5" y2="115" stroke="#57339F"/>
<line x1="160.5" y1="-5" x2="160.5" y2="115" stroke="#57339F"/>
<line x1="200.5" y1="-5" x2="200.5" y2="115" stroke="#57339F"/>
<line x1="240.5" y1="-5" x2="240.5" y2="115" stroke="#57339F"/>
<line x1="280.5" y1="-5" x2="280.5" y2="115" stroke="#57339F"/>
<line x1="320.5" y1="-5" x2="320.5" y2="115" stroke="#57339F"/>
<line x1="360.5" y1="-5" x2="360.5" y2="115" stroke="#57339F"/>
<rect y="-5" width="397" height="120" fill="url(#paint0_linear_202_70)"/>
<rect y="-5" width="397" height="120" fill="url(#paint1_linear_202_70)"/>
</g>
<defs>
<linearGradient id="paint0_linear_202_70" x1="0" y1="55" x2="397" y2="55" gradientUnits="userSpaceOnUse">
<stop stop-color="white"/>
<stop offset="0.50856" stop-color="white" stop-opacity="0"/>
<stop offset="1" stop-color="white"/>
</linearGradient>
<linearGradient id="paint1_linear_202_70" x1="198.5" y1="-5" x2="198.5" y2="115" gradientUnits="userSpaceOnUse">
<stop stop-color="white" stop-opacity="0"/>
<stop offset="0.982529" stop-color="white"/>
</linearGradient>
<clipPath id="clip0_202_70">
<rect width="397" height="115" fill="white"/>
</clipPath>
</defs>
</svg>
