<svg width="326" height="63" viewBox="0 0 326 63" fill="none" xmlns="http://www.w3.org/2000/svg">
<path d="M31.5 5.25L39.6113 21.6825L57.75 24.3338L44.625 37.1175L47.7225 55.1775L31.5 46.6463L15.2775 55.1775L18.375 37.1175L5.25 24.3338L23.3888 21.6825L31.5 5.25Z" fill="#FFD700" stroke="#FFD700" stroke-width="2" stroke-linecap="round" stroke-linejoin="round"/>
<path d="M294 5.25L302.111 21.6825L320.25 24.3338L307.125 37.1175L310.223 55.1775L294 46.6463L277.778 55.1775L280.875 37.1175L267.75 24.3338L285.889 21.6825L294 5.25Z" stroke="#FFD700" stroke-width="2" stroke-linecap="round" stroke-linejoin="round"/>
<path d="M228.375 5.25L236.486 21.6825L254.625 24.3338L241.5 37.1175L244.597 55.1775L228.375 46.6463L212.153 55.1775L215.25 37.1175L202.125 24.3338L220.264 21.6825L228.375 5.25Z" fill="#FFD700" stroke="#FFD700" stroke-width="2" stroke-linecap="round" stroke-linejoin="round"/>
<path d="M162.75 5.25L170.861 21.6825L189 24.3338L175.875 37.1175L178.972 55.1775L162.75 46.6463L146.528 55.1775L149.625 37.1175L136.5 24.3338L154.639 21.6825L162.75 5.25Z" fill="#FFD700" stroke="#FFD700" stroke-width="2" stroke-linecap="round" stroke-linejoin="round"/>
<path d="M97.125 5.25L105.236 21.6825L123.375 24.3338L110.25 37.1175L113.347 55.1775L97.125 46.6463L80.9025 55.1775L84 37.1175L70.875 24.3338L89.0138 21.6825L97.125 5.25Z" fill="#FFD700" stroke="#FFD700" stroke-width="2" stroke-linecap="round" stroke-linejoin="round"/>
</svg>
