<svg width="124" height="24" viewBox="0 0 124 24" fill="none" xmlns="http://www.w3.org/2000/svg">
<path d="M12 2L15.09 8.26L22 9.27L17 14.14L18.18 21.02L12 17.77L5.82 21.02L7 14.14L2 9.27L8.91 8.26L12 2Z" fill="#FFD700" stroke="#FFD700" stroke-width="2" stroke-linecap="round" stroke-linejoin="round"/>
<path d="M112 2L115.09 8.26L122 9.27L117 14.14L118.18 21.02L112 17.77L105.82 21.02L107 14.14L102 9.27L108.91 8.26L112 2Z" stroke="#FFD700" stroke-width="2" stroke-linecap="round" stroke-linejoin="round"/>
<path d="M87 2L90.09 8.26L97 9.27L92 14.14L93.18 21.02L87 17.77L80.82 21.02L82 14.14L77 9.27L83.91 8.26L87 2Z" fill="#FFD700" stroke="#FFD700" stroke-width="2" stroke-linecap="round" stroke-linejoin="round"/>
<path d="M62 2L65.09 8.26L72 9.27L67 14.14L68.18 21.02L62 17.77L55.82 21.02L57 14.14L52 9.27L58.91 8.26L62 2Z" fill="#FFD700" stroke="#FFD700" stroke-width="2" stroke-linecap="round" stroke-linejoin="round"/>
<path d="M37 2L40.09 8.26L47 9.27L42 14.14L43.18 21.02L37 17.77L30.82 21.02L32 14.14L27 9.27L33.91 8.26L37 2Z" fill="#FFD700" stroke="#FFD700" stroke-width="2" stroke-linecap="round" stroke-linejoin="round"/>
</svg>
