<svg width="13" height="11" viewBox="0 0 13 11" fill="none" xmlns="http://www.w3.org/2000/svg">
<path d="M12.9375 1.92635C12.4788 2.13045 11.9922 2.26413 11.494 2.32293C12.0185 2.00724 12.4111 1.51077 12.5986 0.925911C12.1053 1.21975 11.5659 1.42723 11.0035 1.53951C10.659 1.16927 10.2116 0.9118 9.7195 0.800569C9.22742 0.689338 8.71343 0.729496 8.24436 0.91582C7.7753 1.10214 7.37285 1.42602 7.08936 1.84532C6.80587 2.26462 6.65444 2.75996 6.65478 3.26693C6.65478 3.46548 6.67673 3.65787 6.72114 3.84205C5.72149 3.79259 4.74343 3.53197 3.8507 3.07716C2.95796 2.62235 2.17059 1.98357 1.5399 1.20244C1.31581 1.588 1.19828 2.02673 1.19945 2.47325C1.19945 3.34901 1.64198 4.12268 2.31777 4.5757C1.9186 4.56297 1.52829 4.45425 1.17954 4.25864V4.29096C1.1792 4.87438 1.37984 5.43992 1.74739 5.89147C2.11493 6.34302 2.62669 6.65272 3.19569 6.76794C2.82567 6.86993 2.43727 6.88503 2.06052 6.81206C2.221 7.31397 2.53344 7.75297 2.9542 8.06772C3.37496 8.38248 3.88302 8.55727 4.40742 8.56769C3.8861 8.97899 3.2892 9.2829 2.65089 9.46206C2.01258 9.6412 1.34539 9.69207 0.6875 9.61174C1.8362 10.3548 3.17361 10.7493 4.53961 10.7481C9.16297 10.7481 11.6916 6.89825 11.6916 3.55936C11.6916 3.45162 11.6875 3.34081 11.6834 3.23255C12.1747 2.87499 12.5993 2.43296 12.9375 1.92686V1.92635Z" fill="white"/>
</svg>
