<svg width="12" height="12" viewBox="0 0 12 12" fill="none" xmlns="http://www.w3.org/2000/svg">
<path d="M3.79151 0.713013C1.97902 0.713013 0.489624 2.20802 0.489624 4.03189V8.68109C0.489624 10.5029 1.97698 12 3.79151 12H8.4169C10.2294 12 11.7188 10.505 11.7188 8.68109V4.0324C11.7188 2.21007 10.2314 0.713013 8.4169 0.713013H3.79151ZM3.79151 1.7391H8.4169C8.71657 1.73869 9.01337 1.79772 9.2903 1.9128C9.56723 2.02788 9.81886 2.19675 10.0308 2.40974C10.2426 2.62273 10.4107 2.87564 10.5251 3.154C10.6396 3.43236 10.6984 3.73068 10.698 4.03189V8.68109C10.6984 8.9823 10.6396 9.28063 10.5251 9.55898C10.4107 9.83734 10.2426 10.0903 10.0308 10.3032C9.81886 10.5162 9.56723 10.6851 9.2903 10.8002C9.01337 10.9153 8.71657 10.9743 8.4169 10.9739H3.79202C3.49231 10.9744 3.19546 10.9154 2.91847 10.8003C2.64147 10.6853 2.38979 10.5164 2.17784 10.3034C1.96589 10.0904 1.79784 9.83749 1.68332 9.5591C1.5688 9.28071 1.51005 8.98234 1.51046 8.68109V4.0324C1.50999 3.73115 1.56866 3.43277 1.68312 3.15435C1.79758 2.87594 1.96558 2.62296 2.17748 2.40992C2.38938 2.19688 2.64103 2.02796 2.91799 1.91285C3.19496 1.79774 3.4918 1.73869 3.79151 1.7391ZM9.11873 2.86164C9.05792 2.86137 8.99767 2.8732 8.94144 2.89647C8.88521 2.91973 8.83413 2.95396 8.79113 2.99717C8.74814 3.04039 8.71408 3.09174 8.69094 3.14826C8.6678 3.20477 8.65602 3.26534 8.65629 3.32646C8.65629 3.58503 8.86148 3.79127 9.11873 3.79127C9.17957 3.79161 9.23988 3.77983 9.29617 3.75659C9.35246 3.73336 9.4036 3.69914 9.44665 3.65592C9.4897 3.6127 9.5238 3.56132 9.54698 3.50477C9.57015 3.44822 9.58195 3.38762 9.58168 3.32646C9.58195 3.2653 9.57015 3.20469 9.54698 3.14814C9.5238 3.09159 9.4897 3.04022 9.44665 2.99699C9.4036 2.95377 9.35246 2.91955 9.29617 2.89632C9.23988 2.87309 9.17957 2.8613 9.11873 2.86164ZM6.10421 3.27823C4.41983 3.27823 3.04171 4.66345 3.04171 6.35649C3.04171 8.04953 4.41983 9.43475 6.10421 9.43475C7.78858 9.43475 9.16671 8.04953 9.16671 6.35649C9.16671 4.66345 7.78858 3.27823 6.10421 3.27823ZM6.10421 4.30432C7.23886 4.30432 8.14587 5.216 8.14587 6.35649C8.14587 7.49699 7.23886 8.40866 6.10421 8.40866C4.96955 8.40866 4.06254 7.49699 4.06254 6.35649C4.06254 5.216 4.96955 4.30432 6.10421 4.30432Z" fill="#1B242A"/>
</svg>
