<svg width="11" height="11" viewBox="0 0 11 11" fill="none" xmlns="http://www.w3.org/2000/svg">
<path d="M3.625 0.765259C2.81277 0.765259 2.03382 1.08957 1.45949 1.66686C0.885155 2.24415 0.5625 3.02711 0.5625 3.84352V7.43482C0.5625 8.25123 0.885155 9.0342 1.45949 9.61148C2.03382 10.1888 2.81277 10.5131 3.625 10.5131H7.19792C8.01014 10.5131 8.7891 10.1888 9.36343 9.61148C9.93776 9.0342 10.2604 8.25123 10.2604 7.43482V4.86961C10.2604 4.73354 10.2066 4.60304 10.1109 4.50683C10.0152 4.41062 9.88537 4.35656 9.75 4.35656H9.23958C9.10421 4.35656 8.97439 4.30251 8.87866 4.2063C8.78294 4.11008 8.72917 3.97959 8.72917 3.84352C8.72917 3.02711 8.40651 2.24415 7.83218 1.66686C7.25785 1.08957 6.47889 0.765259 5.66667 0.765259H3.625ZM3.625 3.33048H5.66667C5.9474 3.33048 6.17708 3.56135 6.17708 3.84352C6.17708 4.12569 5.9474 4.35656 5.66667 4.35656H3.625C3.34427 4.35656 3.11458 4.12569 3.11458 3.84352C3.11458 3.56135 3.34427 3.33048 3.625 3.33048ZM3.625 6.92178H7.19792C7.47865 6.92178 7.70833 7.15265 7.70833 7.43482C7.70833 7.717 7.47865 7.94787 7.19792 7.94787H3.625C3.34427 7.94787 3.11458 7.717 3.11458 7.43482C3.11458 7.15265 3.34427 6.92178 3.625 6.92178Z" fill="#1B242A"/>
</svg>
