<svg width="13" height="11" viewBox="0 0 13 11" fill="none" xmlns="http://www.w3.org/2000/svg">
<path d="M12.9375 1.92647C12.4788 2.13057 11.9922 2.26425 11.494 2.32305C12.0185 2.00736 12.4111 1.5109 12.5986 0.926033C12.1053 1.21987 11.5659 1.42736 11.0035 1.53963C10.659 1.1694 10.2116 0.911922 9.7195 0.800691C9.22742 0.68946 8.71343 0.729618 8.24436 0.915942C7.7753 1.10227 7.37285 1.42614 7.08936 1.84544C6.80587 2.26475 6.65444 2.76009 6.65478 3.26705C6.65478 3.4656 6.67673 3.65799 6.72114 3.84217C5.72149 3.79272 4.74343 3.53209 3.8507 3.07728C2.95796 2.62248 2.17059 1.98369 1.5399 1.20256C1.31581 1.58812 1.19828 2.02685 1.19945 2.47337C1.19945 3.34914 1.64198 4.12281 2.31777 4.57582C1.9186 4.56309 1.52829 4.45437 1.17954 4.25876V4.29108C1.1792 4.8745 1.37984 5.44005 1.74739 5.8916C2.11493 6.34315 2.62669 6.65284 3.19569 6.76806C2.82567 6.87006 2.43727 6.88515 2.06052 6.81218C2.221 7.31409 2.53344 7.75309 2.9542 8.06784C3.37496 8.3826 3.88302 8.5574 4.40742 8.56782C3.8861 8.97911 3.2892 9.28303 2.65089 9.46218C2.01258 9.64133 1.34539 9.69219 0.6875 9.61186C1.8362 10.3549 3.17361 10.7494 4.53961 10.7483C9.16297 10.7483 11.6916 6.89837 11.6916 3.55948C11.6916 3.45175 11.6875 3.34093 11.6834 3.23268C12.1747 2.87511 12.5993 2.43308 12.9375 1.92698V1.92647Z" fill="#1B242A"/>
</svg>
