<svg width="12" height="12" viewBox="0 0 12 12" fill="none" xmlns="http://www.w3.org/2000/svg">
<path d="M1.69278 0.713135C1.51571 0.713 1.34036 0.747931 1.17672 0.815931C1.01309 0.883931 0.86439 0.983668 0.739114 1.10945C0.613839 1.23522 0.514443 1.38458 0.446605 1.54897C0.378768 1.71337 0.343817 1.88959 0.34375 2.06757C0.34375 2.81661 0.947573 3.4374 1.69125 3.4374C2.43595 3.4374 3.04028 2.81661 3.04028 2.0686C3.04042 1.89064 3.00566 1.71441 2.938 1.54996C2.87034 1.38552 2.77111 1.23608 2.64597 1.1102C2.52083 0.984323 2.37224 0.884464 2.20868 0.816333C2.04513 0.748202 1.86982 0.713135 1.69278 0.713135ZM8.27307 4.30444C7.14046 4.30444 6.49274 4.89957 6.18139 5.49162H6.14872V4.464H3.91667V12.0001H6.24264V8.26975C6.24264 7.28676 6.31614 6.33661 7.52633 6.33661C8.71918 6.33661 8.73653 7.4576 8.73653 8.33183V12.0001H11.0625V7.86086C11.0625 5.83536 10.6292 4.30444 8.27307 4.30444ZM0.529031 4.46348V12.0001H2.85653V4.46348H0.529031Z" fill="white"/>
</svg>
