<svg width="12" height="12" viewBox="0 0 12 12" fill="none" xmlns="http://www.w3.org/2000/svg">
<path d="M3.79151 0.713135C1.97902 0.713135 0.489624 2.20814 0.489624 4.03201V8.68121C0.489624 10.503 1.97698 12.0001 3.79151 12.0001H8.4169C10.2294 12.0001 11.7188 10.5051 11.7188 8.68121V4.03253C11.7188 2.2102 10.2314 0.713135 8.4169 0.713135H3.79151ZM3.79151 1.73922H8.4169C8.71657 1.73882 9.01337 1.79784 9.2903 1.91292C9.56723 2.028 9.81886 2.19687 10.0308 2.40986C10.2426 2.62285 10.4107 2.87576 10.5251 3.15412C10.6396 3.43248 10.6984 3.73081 10.698 4.03201V8.68121C10.6984 8.98242 10.6396 9.28075 10.5251 9.5591C10.4107 9.83746 10.2426 10.0904 10.0308 10.3034C9.81886 10.5164 9.56723 10.6852 9.2903 10.8003C9.01337 10.9154 8.71657 10.9744 8.4169 10.974H3.79202C3.49231 10.9745 3.19546 10.9155 2.91847 10.8004C2.64147 10.6854 2.38979 10.5165 2.17784 10.3035C1.96589 10.0906 1.79784 9.83762 1.68332 9.55922C1.5688 9.28083 1.51005 8.98246 1.51046 8.68121V4.03253C1.50999 3.73128 1.56866 3.43289 1.68312 3.15448C1.79758 2.87606 1.96558 2.62308 2.17748 2.41004C2.38938 2.197 2.64103 2.02809 2.91799 1.91297C3.19496 1.79786 3.4918 1.73882 3.79151 1.73922ZM9.11873 2.86176C9.05792 2.86149 8.99767 2.87333 8.94144 2.89659C8.88521 2.91985 8.83413 2.95408 8.79113 2.9973C8.74814 3.04051 8.71408 3.09186 8.69094 3.14838C8.6678 3.2049 8.65602 3.26546 8.65629 3.32658C8.65629 3.58515 8.86148 3.7914 9.11873 3.7914C9.17957 3.79174 9.23988 3.77995 9.29617 3.75672C9.35246 3.73348 9.4036 3.69927 9.44665 3.65604C9.4897 3.61282 9.5238 3.56145 9.54698 3.5049C9.57015 3.44835 9.58195 3.38774 9.58168 3.32658C9.58195 3.26542 9.57015 3.20481 9.54698 3.14826C9.5238 3.09171 9.4897 3.04034 9.44665 2.99711C9.4036 2.95389 9.35246 2.91967 9.29617 2.89644C9.23988 2.87321 9.17957 2.86142 9.11873 2.86176ZM6.10421 3.27835C4.41983 3.27835 3.04171 4.66357 3.04171 6.35661C3.04171 8.04966 4.41983 9.43487 6.10421 9.43487C7.78858 9.43487 9.16671 8.04966 9.16671 6.35661C9.16671 4.66357 7.78858 3.27835 6.10421 3.27835ZM6.10421 4.30444C7.23886 4.30444 8.14587 5.21612 8.14587 6.35661C8.14587 7.49711 7.23886 8.40879 6.10421 8.40879C4.96955 8.40879 4.06254 7.49711 4.06254 6.35661C4.06254 5.21612 4.96955 4.30444 6.10421 4.30444Z" fill="white"/>
</svg>
