<svg width="12" height="12" viewBox="0 0 12 12" fill="none" xmlns="http://www.w3.org/2000/svg">
<path d="M1.69278 0.713013C1.51571 0.712878 1.34036 0.747809 1.17672 0.815809C1.01309 0.883809 0.86439 0.983546 0.739114 1.10932C0.613839 1.2351 0.514443 1.38445 0.446605 1.54885C0.378768 1.71325 0.343817 1.88947 0.34375 2.06745C0.34375 2.81649 0.947573 3.43727 1.69125 3.43727C2.43595 3.43727 3.04028 2.81649 3.04028 2.06847C3.04042 1.89052 3.00566 1.71429 2.938 1.54984C2.87034 1.38539 2.77111 1.23596 2.64597 1.11008C2.52083 0.984201 2.37224 0.884342 2.20868 0.816211C2.04513 0.74808 1.86982 0.713013 1.69278 0.713013ZM8.27307 4.30432C7.14046 4.30432 6.49274 4.89945 6.18139 5.4915H6.14872V4.46387H3.91667V12H6.24264V8.26963C6.24264 7.28664 6.31614 6.33648 7.52633 6.33648C8.71918 6.33648 8.73653 7.45748 8.73653 8.33171V12H11.0625V7.86073C11.0625 5.83524 10.6292 4.30432 8.27307 4.30432ZM0.529031 4.46336V12H2.85653V4.46336H0.529031Z" fill="#1B242A"/>
</svg>
