<svg width="11" height="11" viewBox="0 0 11 11" fill="none" xmlns="http://www.w3.org/2000/svg">
<path d="M3.625 0.765137C2.81277 0.765137 2.03382 1.08945 1.45949 1.66674C0.885155 2.24402 0.5625 3.02699 0.5625 3.8434V7.4347C0.5625 8.25111 0.885155 9.03408 1.45949 9.61136C2.03382 10.1886 2.81277 10.513 3.625 10.513H7.19792C8.01014 10.513 8.7891 10.1886 9.36343 9.61136C9.93776 9.03408 10.2604 8.25111 10.2604 7.4347V4.86948C10.2604 4.73342 10.2066 4.60292 10.1109 4.50671C10.0152 4.41049 9.88537 4.35644 9.75 4.35644H9.23958C9.10421 4.35644 8.97439 4.30239 8.87866 4.20617C8.78294 4.10996 8.72917 3.97947 8.72917 3.8434C8.72917 3.02699 8.40651 2.24402 7.83218 1.66674C7.25785 1.08945 6.47889 0.765137 5.66667 0.765137H3.625ZM3.625 3.33035H5.66667C5.9474 3.33035 6.17708 3.56122 6.17708 3.8434C6.17708 4.12557 5.9474 4.35644 5.66667 4.35644H3.625C3.34427 4.35644 3.11458 4.12557 3.11458 3.8434C3.11458 3.56122 3.34427 3.33035 3.625 3.33035ZM3.625 6.92166H7.19792C7.47865 6.92166 7.70833 7.15253 7.70833 7.4347C7.70833 7.71688 7.47865 7.94775 7.19792 7.94775H3.625C3.34427 7.94775 3.11458 7.71688 3.11458 7.4347C3.11458 7.15253 3.34427 6.92166 3.625 6.92166Z" fill="white"/>
</svg>
